<svg width="237" height="23" xmlns="http://www.w3.org/2000/svg"><g fill="none" fill-rule="evenodd"><path fill="#FFF" d="M.183.196h3.608v3.608H.183zM12.838 6.527h3.608v3.608h-3.608zM19.157 6.527h3.608v3.608h-3.608zM6.51.196h3.608v3.608H6.51zM12.838.196h3.608v3.608h-3.608zM6.51 6.527h3.608v3.608H6.51zM6.51 12.858h3.608v3.608H6.51zM12.838 12.858h3.608v3.608h-3.608zM12.838 19.19h3.608v3.608h-3.608zM51.789 2.607h1.509c1.857 0 2.246 1.174 2.95 2.582h.533V1.923H44.954l.003 3.266h.534c.705-1.408 1.132-2.582 2.99-2.582h1.237v11.59c0 1.986.086 1.879-1.835 2.113v.557h5.742v-.557c-1.922-.234-1.836-.127-1.836-2.112V2.607z"/><path d="M51.793 2.584h1.515c1.866 0 2.255 1.178 2.963 2.592h.535V1.899H44.93l.003 3.277h.535c.707-1.414 1.136-2.592 3.002-2.592h1.244v11.63c0 1.99.085 1.884-1.844 2.119v.558h5.767v-.558c-1.93-.235-1.845-.128-1.845-2.12V2.584z" stroke="#FFF" stroke-width=".102"/><path d="M68.461 16.825v-.6c-2.3 0-1.94-2.11-1.94-2.11l-.002-7.358h-3.63l.001.632c1.047 0 1.71-.087 1.71.896v3.352c0 3.157-.94 4.226-2.926 4.226-1.879 0-2.134-1.496-2.134-3.095v-6.01h-3.63v.631c1.046 0 1.708-.087 1.708.896v4.673c0 2.392.662 4.163 3.116 4.163.62 0 1.493-.208 2.344-.619.645-.309 1.52-1.024 1.52-1.024l.022 1.347h3.841z" fill="#FFF"/><path d="M68.486 16.849v-.602c-2.309 0-1.947-2.123-1.947-2.123l-.002-7.391h-3.645l.001.634c1.051 0 1.716-.086 1.716.9v3.368c0 3.173-.943 4.247-2.937 4.247-1.887 0-2.143-1.503-2.143-3.111V6.733h-3.644v.634c1.051 0 1.716-.086 1.716.9v4.698c0 2.402.663 4.182 3.127 4.182.623 0 1.5-.21 2.354-.623.647-.311 1.526-1.03 1.526-1.03l.021 1.355h3.857z" stroke="#FFF" stroke-width=".102"/><path d="M82.65 11.594c0-2.2.218-4.405 3.16-4.405 1.816 0 1.99 1.736 1.99 3.082v6.596h3.63v-.556c-1.789 0-1.71-.192-1.71-2.113V9.92c0-2.658-1.19-3.983-2.994-3.983-1.858 0-2.867.668-4.077 1.878V6.758h-3.63l.001.63c1.207 0 1.708.096 1.708.897v5.913c0 1.92.093 2.072-1.708 2.113v.556h5.338v-.556c-1.76-.041-1.709-.192-1.709-2.113v-2.604z" fill="#FFF"/><path d="M82.64 11.595c0-2.21.22-4.426 3.172-4.426 1.824 0 1.997 1.745 1.997 3.096v6.626h3.644v-.559c-1.795 0-1.714-.193-1.714-2.121V9.913c0-2.67-1.197-4.001-3.008-4.001-1.864 0-2.877.672-4.092 1.887V6.735h-3.645l.002.635c1.211 0 1.715.097 1.715.901v5.94c0 1.928.092 2.081-1.715 2.121v.559h5.358v-.559c-1.767-.04-1.715-.193-1.715-2.121v-2.616z" stroke="#FFF" stroke-width=".102"/><path d="M152.416 17.12c3.415 0 5.7-2.581 5.7-5.675 0-3.695-2.647-5.507-5.315-5.507-3.544 0-5.7 2.71-5.7 5.677 0 3.65 2.583 5.506 5.315 5.506m.342-.746c-2.328 0-3.544-2.113-3.544-4.845 0-3.288 1.452-4.845 3.288-4.845 2.497 0 3.5 2.497 3.5 4.867 0 3.308-1.473 4.823-3.244 4.823" fill="#FFF"/><path d="M152.416 17.146c3.431 0 5.724-2.594 5.724-5.703 0-3.709-2.659-5.532-5.337-5.532-3.561 0-5.726 2.724-5.726 5.704 0 3.666 2.593 5.531 5.339 5.531zm.343-.75c-2.338 0-3.56-2.123-3.56-4.867 0-3.302 1.459-4.866 3.303-4.866 2.507 0 3.517 2.508 3.517 4.888 0 3.322-1.48 4.845-3.26 4.845z" stroke="#FFF" stroke-width=".102"/><path d="M158.62 7.31c.94 0 1.372.031 1.541.564l2.686 8.99h.874l3.223-8.047 3.076 8.047h.874l2.645-7.794c.556-1.512.959-1.752 1.9-1.752v-.556h-4.313v.556c1.326.023 2.09-.309 1.471 1.762l-1.639 5.096h-.042l-2.945-7.984h-.962l-3.138 7.92h-.043l-1.419-5.538c-.413-1.45.457-1.233 1.833-1.233v-.587h-5.622v.555z" fill="#FFF"/><path d="M158.596 7.29c.942 0 1.376.032 1.546.566l2.692 9.034h.878l3.234-8.084 3.083 8.084h.877l2.653-7.83c.558-1.52.96-1.762 1.904-1.762V6.74h-4.326v.558c1.332.024 2.098-.31 1.476 1.771l-1.643 5.12h-.042l-2.955-8.02h-.964l-3.148 7.955h-.042l-1.424-5.564c-.413-1.457.459-1.238 1.839-1.238v-.59h-5.638v.558z" stroke="#FFF" stroke-width=".102"/><path d="M125.414 14.218c-.726.897-2.007 2.029-4.013 2.029-2.284 0-3.565-1.772-3.565-3.714 0-.939.298-2.689 2.093-3.351l5.485 5.036zm5.755-7.513h-7.366v.982h2.51c.787 1.068.703 3.543-.023 5.06l-5.059-4.783c-1.9-1.793-2.307-2.732-2.307-3.671 0-1.366 1.047-2.029 1.901-2.029 1.302 0 2.007.727 2.433 2.221h.556V2.52c-.47-.468-1.495-.853-2.775-.853-2.605 0-3.908 1.517-3.908 3.373 0 1.645 1.175 2.541 2.413 3.735-2.71.321-3.992 1.987-3.992 3.951 0 2.155 1.645 4.396 5.38 4.396 2.39 0 4.055-1.069 5.08-2.39.726.746 1.408 1.344 2.263 2.134h2.498v-.406c-.812-.534-2.84-2.284-3.864-3.265.981-1.752.896-4.248.81-5.508h3.45v-.982z" fill="#FFF"/><path d="M125.422 14.235c-.73.899-2.014 2.035-4.027 2.035-2.29 0-3.576-1.777-3.576-3.726 0-.944.3-2.7 2.099-3.363l5.504 5.054zm5.77-7.537h-7.387v.983h2.515c.794 1.07.709 3.554-.02 5.076l-5.076-4.796c-1.905-1.8-2.313-2.743-2.313-3.685 0-1.37 1.05-2.034 1.907-2.034 1.306 0 2.012.73 2.44 2.229h.557V2.5c-.471-.471-1.498-.858-2.783-.858-2.613 0-3.92 1.522-3.92 3.385 0 1.649 1.179 2.547 2.42 3.747-2.72.32-4.004 1.992-4.004 3.963 0 2.162 1.649 4.41 5.397 4.41 2.398 0 4.067-1.072 5.097-2.398.728.75 1.41 1.348 2.268 2.141h2.506v-.408c-.813-.535-2.848-2.29-3.876-3.275.985-1.756.899-4.261.813-5.525h3.46v-.984z" stroke="#FFF" stroke-width=".102"/><path d="M191.446 16.545c.789.384 1.707.576 2.88.576 1.858 0 3.865-.982 3.865-3.202 0-.98-.256-1.77-2.262-3.179-1.561-1.11-2.65-1.666-2.65-2.69 0-.833.749-1.367 1.646-1.367 1.217 0 1.856 1.026 1.92 1.752h.556V6.3c-.982-.32-1.836-.363-2.518-.363-1.751 0-3.416 1.004-3.416 2.797 0 1.407.704 1.75 2.433 3.008 1.28.917 2.39 1.408 2.39 2.797 0 .896-.725 1.835-1.964 1.835-1.237 0-2.347-.726-2.326-2.22h-.554v2.391z" fill="#FFF"/><path d="M191.42 16.568c.796.385 1.721.578 2.903.578 1.871 0 3.893-.985 3.893-3.216 0-.985-.258-1.779-2.28-3.194-1.57-1.115-2.667-1.672-2.667-2.702 0-.835.753-1.372 1.656-1.372 1.226 0 1.871 1.03 1.935 1.76h.56V6.276c-.99-.322-1.85-.364-2.538-.364-1.762 0-3.44 1.007-3.44 2.807 0 1.416.71 1.76 2.451 3.023 1.29.922 2.41 1.415 2.41 2.81 0 .9-.733 1.843-1.98 1.843-1.247 0-2.365-.73-2.344-2.229h-.559v2.401z" stroke="#FFF" stroke-width=".102"/><path d="M77.374 5.948c-1.61.09-2.561.746-3.682 1.867V6.757h-3.63l.001.632c1.206 0 1.708.096 1.708.896v5.913c0 1.92.092 2.071-1.708 2.112v.554H75.4v-.554c-1.76-.04-1.708-.192-1.708-2.112v-2.603c0-2.2.22-4.408 3.159-4.408.195 0 .371.021.531.058l-.008-1.297z" fill="#FFF"/><path d="M77.399 5.921c-1.621.092-2.58.75-3.707 1.877V6.735h-3.654v.634c1.216 0 1.719.096 1.719.9v5.941c0 1.93.093 2.081-1.718 2.122v.557h5.373v-.557c-1.772-.04-1.72-.193-1.72-2.122v-2.616c0-2.209.22-4.427 3.18-4.427.198 0 .375.02.535.057l-.008-1.303z" stroke="#FFF" stroke-width=".102"/><path d="M95.359 10.251v.724h5.422v-.598c0-2.689-1.56-4.44-3.971-4.44-3.63 0-4.973 3.052-4.973 5.55 0 1.601.79 3.286 1.429 4.012 1.73 1.9 3.523 1.623 4.056 1.623h.663l2.796-1.323-.343-.662c-.512.255-1.216.77-2.39.77-3.052 0-4.181-2.369-4.181-5.309s1.385-3.915 2.815-3.915c1.196 0 2.24.94 2.24 2.306 0 .94-.596 1.24-1.066 1.24l-2.497.022z" fill="#FFF"/><path d="M95.357 10.246v.726h5.457v-.6c0-2.701-1.569-4.46-3.997-4.46-3.653 0-5.005 3.067-5.005 5.576 0 1.608.795 3.3 1.44 4.03 1.741 1.906 3.544 1.629 4.081 1.629H98l2.815-1.33-.345-.663c-.515.257-1.224.772-2.405.772-3.07 0-4.209-2.38-4.209-5.332 0-2.954 1.394-3.932 2.833-3.932 1.204 0 2.256.944 2.256 2.317 0 .944-.6 1.243-1.073 1.243l-2.514.024z" stroke="#FFF" stroke-width=".102"/><path d="M232.402 13.92c0 1.046-1.323 1.986-2.454 1.986-2.605 0-3.586-2.883-3.586-5.101 0-1.666.939-4.121 3.287-4.121 1.322 0 2.198.361 2.753 1.281v5.954zm3.709 2.905v-.556c-1.643 0-1.788.009-1.788-1.08V1.787l-3.63.03v.554h.876c.578 0 .833.363.833.94V6.3c-.768-.32-1.728-.36-2.412-.36-2.881 0-5.657 1.94-5.657 5.719 0 2.431 1.495 5.464 5.017 5.464.512 0 .789-.171 1.62-.64l1.446-.855v1.196l3.695.002z" fill="#FFF"/><path d="M232.41 13.934c0 1.05-1.328 1.991-2.464 1.991-2.616 0-3.6-2.89-3.6-5.117 0-1.67.943-4.135 3.3-4.135 1.328 0 2.209.366 2.765 1.286v5.975zm3.726 2.915v-.558c-1.65 0-1.796.008-1.796-1.084V1.762l-3.643.03v.557h.879c.578 0 .835.363.835.943V6.29c-.772-.32-1.735-.363-2.421-.363-2.895 0-5.683 1.947-5.683 5.74 0 2.44 1.502 5.48 5.039 5.48.514 0 .793-.17 1.628-.642l1.452-.859v1.202l3.71.002z" stroke="#FFF" stroke-width=".102"/><path d="M109.942 5.948c-1.61.09-2.561.746-3.681 1.867V6.757h-3.63v.632c1.206 0 1.708.096 1.708.896v5.913c0 1.92.092 2.071-1.708 2.112v.554h5.337v-.554c-1.76-.04-1.707-.192-1.707-2.112v-2.603c0-2.2.219-4.408 3.158-4.408.197 0 .37.021.53.058l-.007-1.297z" fill="#FFF"/><path d="M109.966 5.921c-1.62.092-2.578.75-3.706 1.877V6.735h-3.656l.002.634c1.215 0 1.72.096 1.72.9v5.941c0 1.93.091 2.081-1.72 2.122v.557h5.373v-.557c-1.772-.04-1.719-.193-1.719-2.122v-2.616c0-2.209.22-4.427 3.18-4.427.197 0 .374.02.534.057l-.008-1.303z" stroke="#FFF" stroke-width=".102"/><path d="M141.838 2.607h1.51c1.857 0 2.245 1.174 2.95 2.582h.534V1.923h-11.829l.003 3.266h.535c.705-1.408 1.132-2.582 2.988-2.582h1.24v11.59c0 1.986.084 1.879-1.836 2.113v.557h5.741v-.557c-1.92-.234-1.836-.127-1.836-2.112V2.607z" fill="#FFF"/><path d="M141.842 2.584h1.516c1.865 0 2.255 1.178 2.964 2.592h.533V1.899h-11.876l.004 3.277h.535c.708-1.414 1.137-2.592 3.001-2.592h1.245v11.63c0 1.99.085 1.884-1.844 2.119v.558h5.766v-.558c-1.929-.235-1.844-.128-1.844-2.12V2.584z" stroke="#FFF" stroke-width=".102"/><path d="M180.62 11.594c0-2.2.22-4.405 3.158-4.405 1.818 0 1.992 1.736 1.992 3.082v6.596h3.628v-.556c-1.787 0-1.708-.192-1.708-2.113V9.92c0-2.658-1.192-3.983-2.995-3.983-1.857 0-2.866.668-4.076 1.878V6.758h-3.63l.001.63c1.206 0 1.708.096 1.708.897v5.913c0 1.92.093 2.072-1.708 2.113v.556h5.338v-.556c-1.76-.041-1.709-.192-1.709-2.113v-2.604z" fill="#FFF"/><path d="M180.608 11.595c0-2.21.222-4.426 3.172-4.426 1.826 0 2 1.745 2 3.096v6.626h3.643v-.559c-1.796 0-1.715-.193-1.715-2.121V9.913c0-2.67-1.196-4.001-3.007-4.001-1.864 0-2.877.672-4.093 1.887V6.735h-3.644l.002.635c1.212 0 1.715.097 1.715.901v5.94c0 1.928.093 2.081-1.715 2.121v.559h5.357v-.559c-1.767-.04-1.715-.193-1.715-2.121v-2.616z" stroke="#FFF" stroke-width=".102"/><path d="M214.524 11.594c0-2.2.219-4.405 3.16-4.405 1.817 0 1.99 1.736 1.99 3.082v6.596h3.629v-.556c-1.787 0-1.708-.192-1.708-2.113V9.92c0-2.658-1.191-3.983-2.994-3.983-1.858 0-2.867.668-4.077 1.878V6.758h-3.63l.002.63c1.204 0 1.707.096 1.707.897v5.913c0 1.92.093 2.072-1.707 2.113v.556h5.337v-.556c-1.761-.041-1.71-.192-1.71-2.113v-2.604z" fill="#FFF"/><path d="M214.514 11.595c0-2.21.22-4.426 3.17-4.426 1.826 0 1.999 1.745 1.999 3.096v6.626h3.644v-.559c-1.795 0-1.714-.193-1.714-2.121V9.913c0-2.67-1.196-4.001-3.007-4.001-1.865 0-2.878.672-4.092 1.887V6.735h-3.645l.002.635c1.21 0 1.715.097 1.715.901v5.94c0 1.928.09 2.081-1.715 2.121v.559h5.357v-.559c-1.767-.04-1.714-.193-1.714-2.121v-2.616z" stroke="#FFF" stroke-width=".102"/><path d="M203.64 10.251v.724h5.423v-.598c0-2.689-1.56-4.44-3.97-4.44-3.63 0-4.975 3.052-4.975 5.55 0 1.601.79 3.286 1.43 4.012 1.73 1.9 3.522 1.623 4.055 1.623h.663l2.797-1.323-.343-.662c-.512.255-1.218.77-2.39.77-3.052 0-4.182-2.369-4.182-5.309s1.386-3.915 2.815-3.915c1.196 0 2.241.94 2.241 2.306 0 .94-.597 1.24-1.067 1.24l-2.497.022z" fill="#FFF"/><path d="M203.638 10.246v.726h5.458v-.6c0-2.701-1.57-4.46-3.996-4.46-3.654 0-5.006 3.067-5.006 5.576 0 1.608.794 3.3 1.439 4.03 1.742 1.906 3.544 1.629 4.082 1.629h.666l2.815-1.33-.346-.663c-.513.257-1.224.772-2.405.772-3.07 0-4.208-2.38-4.208-5.332 0-2.954 1.394-3.932 2.833-3.932 1.203 0 2.256.944 2.256 2.317 0 .944-.601 1.243-1.073 1.243l-2.514.024z" stroke="#FFF" stroke-width=".102"/></g></svg>