<?xml version="1.0" encoding="UTF-8" standalone="no"?>
<svg width="49px" height="99px" viewBox="0 0 49 99" version="1.1" xmlns="http://www.w3.org/2000/svg" xmlns:xlink="http://www.w3.org/1999/xlink" xmlns:sketch="http://www.bohemiancoding.com/sketch/ns">
    <!-- Generator: Sketch 3.5.1 (25234) - http://www.bohemiancoding.com/sketch -->
    <title>btn-carousel-sprite</title>
    <desc>Created with Sketch.</desc>
    <defs></defs>
    <g id="Page-1" stroke="none" stroke-width="1" fill="none" fill-rule="evenodd" sketch:type="MSPage">
        <g id="btn-carousel" sketch:type="MSArtboardGroup">
            <g id="btn-carousel-sprite" sketch:type="MSLayerGroup">
                <g id="btn-carousel-hover" transform="translate(0.000000, 50.000000)" sketch:type="MSShapeGroup">
                    <g id="Oval-1-+-Page-1-Copy-6">
                        <g id="Page-1">
                            <g id="Oval-1-+-Page-1-Copy-6" transform="translate(24.500000, 24.500000) rotate(180.000000) translate(-24.500000, -24.500000) translate(0.000000, -0.000000)">
                                <circle id="Oval-1" fill="#FFFFFF" cx="24.5" cy="24.5" r="24.5"></circle>
                                <path d="M34.5534086,24.4568059 L30.0488121,19.9522094 C29.9672789,19.8706762 29.8546639,19.8202247 29.7303371,19.8202247 C29.4812329,19.8202247 29.2798774,20.0215802 29.2798774,20.2706844 C29.2798774,20.3950112 29.3303289,20.5076261 29.4118621,20.5891593 L33.147524,24.3248212 L15.3156282,24.3248212 C15.066524,24.3248212 14.8651685,24.5261767 14.8651685,24.7752809 C14.8651685,25.0243851 15.066524,25.2257406 15.3156282,25.2257406 L33.147524,25.2257406 L29.4118621,28.9614025 C29.3303289,29.0433861 29.2798774,29.1555506 29.2798774,29.2798774 C29.2798774,29.5289816 29.4812329,29.7303371 29.7303371,29.7303371 C29.8546639,29.7303371 29.9672789,29.6803361 30.0488121,29.5983524 L34.5534086,25.0937559 C34.6353922,25.0122227 34.6853933,24.8996078 34.6853933,24.7752809 C34.6853933,24.650954 34.6353922,24.5387896 34.5534086,24.4568059" id="Page-1" stroke="#009FE4" fill="#009FE4"></path>
                            </g>
                        </g>
                    </g>
                </g>
                <g id="btn-carousel" sketch:type="MSShapeGroup">
                    <g id="Oval-1-+-Page-1-Copy-6">
                        <g id="Design-01.12.15">
                            <g id="2a-Article-Rich:-Project-Case-study">
                                <g id="Oval-1-+-Page-1-Copy-6" transform="translate(24.500000, 24.500000) rotate(180.000000) translate(-24.500000, -24.500000) ">
                                    <circle id="Oval-1" fill="#009FE4" cx="24.5" cy="24.5" r="24.5"></circle>
                                    <path d="M34.5534086,24.4568059 L30.0488121,19.9522094 C29.9672789,19.8706762 29.8546639,19.8202247 29.7303371,19.8202247 C29.4812329,19.8202247 29.2798774,20.0215802 29.2798774,20.2706844 C29.2798774,20.3950112 29.3303289,20.5076261 29.4118621,20.5891593 L33.147524,24.3248212 L15.3156282,24.3248212 C15.066524,24.3248212 14.8651685,24.5261767 14.8651685,24.7752809 C14.8651685,25.0243851 15.066524,25.2257406 15.3156282,25.2257406 L33.147524,25.2257406 L29.4118621,28.9614025 C29.3303289,29.0433861 29.2798774,29.1555506 29.2798774,29.2798774 C29.2798774,29.5289816 29.4812329,29.7303371 29.7303371,29.7303371 C29.8546639,29.7303371 29.9672789,29.6803361 30.0488121,29.5983524 L34.5534086,25.0937559 C34.6353922,25.0122227 34.6853933,24.8996078 34.6853933,24.7752809 C34.6853933,24.650954 34.6353922,24.5387896 34.5534086,24.4568059" id="Page-1" stroke="#FFFFFF" fill="#FFFFFF"></path>
                                </g>
                            </g>
                        </g>
                    </g>
                </g>
            </g>
        </g>
    </g>
</svg>