<?xml version="1.0" encoding="UTF-8" standalone="no"?>
<svg width="7px" height="11px" viewBox="0 0 7 11" version="1.1" xmlns="http://www.w3.org/2000/svg" xmlns:xlink="http://www.w3.org/1999/xlink">
    <!-- Generator: Sketch 3.8.3 (29802) - http://www.bohemiancoding.com/sketch -->
    <title>Page 1 Copy</title>
    <desc>Created with Sketch.</desc>
    <defs></defs>
    <g id="Design-01.12.15" stroke="none" stroke-width="1" fill="none" fill-rule="evenodd">
        <path d="M5.71419586,3.34453754 C5.67661849,3.30696016 5.62471604,3.28370787 5.56741573,3.28370787 C5.45260751,3.28370787 5.35980592,3.37650945 5.35980592,3.49131767 C5.35980592,3.54861798 5.38305822,3.60052043 5.4206356,3.6380978 L7.14234372,5.35980592 L-1.07609806,5.35980592 C-1.19090628,5.35980592 -1.28370787,5.45260751 -1.28370787,5.56741573 C-1.28370787,5.68222395 -1.19090628,5.77502554 -1.07609806,5.77502554 L7.14234372,5.77502554 L5.4206356,7.49673366 C5.38305822,7.53451864 5.35980592,7.58621348 5.35980592,7.64351379 C5.35980592,7.75832201 5.45260751,7.8511236 5.56741573,7.8511236 C5.62471604,7.8511236 5.67661849,7.82807891 5.71419586,7.79029392 L7.79029392,5.71419586 C7.82807891,5.67661849 7.8511236,5.62471604 7.8511236,5.56741573 C7.8511236,5.51011542 7.82807891,5.45842058 7.79029392,5.4206356 L5.71419586,3.34453754 Z" id="Page-1-Copy" stroke="#009FE4" fill="#009FE4" transform="translate(3.283708, 5.567416) rotate(-270.000000) translate(-3.283708, -5.567416) "></path>
    </g>
</svg>