<?xml version="1.0" encoding="UTF-8" standalone="no"?>
<svg width="17px" height="10px" viewBox="0 0 17 10" version="1.1" xmlns="http://www.w3.org/2000/svg" xmlns:xlink="http://www.w3.org/1999/xlink" xmlns:sketch="http://www.bohemiancoding.com/sketch/ns">
    <!-- Generator: Sketch 3.5.1 (25234) - http://www.bohemiancoding.com/sketch -->
    <title>icon-select-arrow-navy</title>
    <desc>Created with Sketch.</desc>
    <defs></defs>
    <g id="Page-1" stroke="none" stroke-width="1" fill="none" fill-rule="evenodd" sketch:type="MSPage">
        <g id="svg-icons" sketch:type="MSArtboardGroup" transform="translate(-437.000000, -9.000000)" stroke="#144178" fill="#FFFFFF">
            <g sketch:type="MSLayerGroup" transform="translate(115.000000, 0.000000)" id="icon-select-arrow-navy">
                <g transform="translate(323.000000, 10.000000)" sketch:type="MSShapeGroup">
                    <g id="Shape-Copy">
                        <g id="Design-01.12.15">
                            <g id="1.-Homepage-menu-Copy">
                                <path d="M3.62522896,10.9174914 C3.71189496,11.0061277 3.82567296,11.0506732 3.93945096,11.0506732 C4.05322896,11.0506732 4.16700596,11.0061277 4.25367296,10.9174914 L10.92034,4.09930951 C11.094117,3.92158231 11.094117,3.63430951 10.92034,3.45658231 L4.25367296,-3.36159949 C4.07989496,-3.53932679 3.79900596,-3.53932679 3.62522896,-3.36159949 C3.45145096,-3.18387229 3.45145096,-2.89659949 3.62522896,-2.71887229 L9.97767296,3.77794591 L3.62522896,10.2747641 C3.45145096,10.4524914 3.45145096,10.7402186 3.62522896,10.9174914 L3.62522896,10.9174914 L3.62522896,10.9174914 Z" id="Shape-Copy" transform="translate(7.272784, 3.777889) rotate(90.000000) translate(-7.272784, -3.777889) "></path>
                            </g>
                        </g>
                    </g>
                </g>
            </g>
        </g>
    </g>
</svg>