<?xml version="1.0" encoding="UTF-8" standalone="no"?>
<svg width="37px" height="37px" viewBox="0 0 37 37" version="1.1" xmlns="http://www.w3.org/2000/svg" xmlns:xlink="http://www.w3.org/1999/xlink">
    <!-- Generator: Sketch 41.1 (35376) - http://www.bohemiancoding.com/sketch -->
    <title>Oval 1 + DOWNLOAD Copy</title>
    <desc>Created with Sketch.</desc>
    <defs></defs>
    <g id="ICMS" stroke="none" stroke-width="1" fill="none" fill-rule="evenodd">
        <g id="ICMS-Landing-v2" transform="translate(-1157.000000, -668.000000)">
            <g id="Oval-1-+-DOWNLOAD-Copy" transform="translate(1157.000000, 668.000000)">
                <circle id="Oval-1" fill="#009FE4" cx="18.5" cy="18.5" r="18.5"></circle>
                <g id="DOWNLOAD" transform="translate(12.081633, 9.816327)" fill="#FFFFFF">
                    <g id="Layer_1">
                        <path d="M0.427891156,10.4323983 C0.191267347,10.4323983 0,10.6271688 0,10.867154 L0,13.5335108 C0,13.773496 0.191267347,13.9682665 0.427891156,13.9682665 L12.4088435,13.9682665 C12.6454673,13.9682665 12.8367347,13.773496 12.8367347,13.5335108 L12.8367347,10.867154 C12.8367347,10.6271688 12.6454673,10.4323983 12.4088435,10.4323983 C12.1722197,10.4323983 11.9809524,10.6271688 11.9809524,10.867154 L11.9809524,13.0987551 L0.855782313,13.0987551 L0.855782313,10.867154 C0.855782313,10.6271688 0.664514966,10.4323983 0.427891156,10.4323983 L0.427891156,10.4323983 Z" id="Shape"></path>
                        <path d="M6.41836735,0.0560834879 C6.18174354,0.0560834879 5.99047619,0.250854051 5.99047619,0.490839208 L5.99047619,9.84243476 L3.27636259,7.17868646 C3.10734558,7.01174026 2.83563469,7.01652257 2.67175238,7.18912059 C2.50744218,7.36171861 2.51214898,7.63691899 2.68202177,7.80386518 L6.11499252,11.1736568 C6.11542041,11.1740915 6.11542041,11.1740915 6.1158483,11.1745263 L6.12098299,11.1793086 C6.13681497,11.1949598 6.15692585,11.2014811 6.1740415,11.2140891 C6.20057075,11.2336531 6.22538844,11.2553908 6.2561966,11.2679988 C6.30797143,11.2897365 6.3627415,11.3010402 6.41793946,11.3010402 C6.47313741,11.3010402 6.52790748,11.2893018 6.57968231,11.2679988 C6.60835102,11.2562604 6.63102925,11.2358268 6.65584694,11.2180019 C6.67552993,11.2045244 6.69778027,11.1962641 6.71532381,11.1788738 L10.1538571,7.80299567 C10.323302,7.63604947 10.3280088,7.3608491 10.1636986,7.18825108 C9.99938844,7.01565306 9.72853333,7.01087075 9.55866054,7.17781694 L6.8462585,9.84243476 L6.8462585,0.490839208 C6.8462585,0.250854051 6.65499116,0.0560834879 6.41836735,0.0560834879 L6.41836735,0.0560834879 Z" id="Shape"></path>
                    </g>
                </g>
            </g>
        </g>
    </g>
</svg>