<?xml version="1.0" encoding="UTF-8" standalone="no"?>
<svg width="29px" height="61px" viewBox="0 0 29 61" version="1.1" xmlns="http://www.w3.org/2000/svg" xmlns:xlink="http://www.w3.org/1999/xlink" xmlns:sketch="http://www.bohemiancoding.com/sketch/ns">
    <!-- Generator: Sketch 3.5.1 (25234) - http://www.bohemiancoding.com/sketch -->
    <title>icon-globe-sprite</title>
    <desc>Created with Sketch.</desc>
    <defs></defs>
    <g id="Page-1" stroke="none" stroke-width="1" fill="none" fill-rule="evenodd" sketch:type="MSPage">
        <g id="icon-globe" sketch:type="MSArtboardGroup">
            <g id="icon-globe-sprite" sketch:type="MSLayerGroup">
                <g id="icon-globe" fill="#FFFFFF" sketch:type="MSShapeGroup">
                    <g id="noun_24407">
                        <g id="Design-01.12.15">
                            <g id="3.-Spotlight-landing">
                                <g id="Rectangle-19-Copy-3-+-Shape-Copy-+-noun_24407">
                                    <g id="noun_24407">
                                        <path d="M14.5018858,0 C6.49428243,0.00232832047 0.00290130559,6.51202132 0,14.5461821 C0.00290130559,22.580634 6.49428243,29.0909091 14.5018858,29.0929464 C22.5109399,29.0906181 29,22.580634 29,14.5461821 C29.0002901,6.51202132 22.5109399,0.00232832047 14.5018858,0 L14.5018858,0 L14.5018858,0 Z M2.3251063,14.5461821 C2.33032865,11.943993 3.14849682,9.53854689 4.53067881,7.55918345 C4.5419939,8.71112 4.96761543,10.1680665 6.36807563,11.8540616 C7.99541794,13.8121791 9.70312641,14.6294196 12.3891551,16.2615723 C15.0737332,17.8919787 14.6655195,18.6271459 14.0130159,19.3626041 C13.3628333,20.096025 11.8184683,22.7866904 14.2570157,24.2573158 C16.1364814,25.3865512 16.4564954,25.479684 16.1295183,26.4587428 C16.1060177,26.5303387 16.0801961,26.5815617 16.0552449,26.6476278 C15.5457756,26.7136939 15.0302136,26.7590961 14.5024661,26.7605513 C7.77782002,26.7494918 2.33758191,21.2933638 2.3251063,14.5461821 L2.3251063,14.5461821 L2.3251063,14.5461821 Z M19.9250063,25.4639679 C20.4756741,24.6490557 21.0660897,23.5620211 21.5758491,22.1356338 C22.717803,18.955148 23.2850083,14.7929841 21.0901706,15.2828045 C19.1564504,15.7132528 16.7802811,16.179499 15.6389075,16.3416083 C14.5018858,16.5051728 13.1182532,15.3625495 11.5738882,14.5473463 C10.0295233,13.7321431 9.13418038,12.3432999 10.3527287,11.4466055 C11.5738882,10.5496201 14.0124356,13.6503608 14.8285729,12.6713021 C15.6389075,11.6922433 15.073443,10.7929295 16.1286479,8.67357584 C17.1853034,6.55160277 17.2859787,6.94101437 18.0806463,5.16508793 C18.4807363,4.2698487 18.4029813,3.50412231 18.1531789,2.89759483 C23.0897504,4.45698746 26.6682207,9.07637528 26.677795,14.5458911 C26.6693812,19.3340822 23.9198139,23.4619033 19.9250063,25.4639679 L19.9250063,25.4639679 L19.9250063,25.4639679 Z" id="Shape"></path>
                                    </g>
                                </g>
                            </g>
                        </g>
                    </g>
                </g>
                <g id="icon-globe-hover" transform="translate(0.000000, 31.000000)" fill="#144178" sketch:type="MSShapeGroup">
                    <g id="Shape">
                        <g id="Design-01.12.15">
                            <g id="1.-Homepage-menu-Copy">
                                <path d="M14.501886,0 C6.494282,0.0023283 0.002901,6.5120213 0,14.5461821 C0.002901,22.580634 6.494282,29.0909091 14.501886,29.0929464 C22.51094,29.0906181 29,22.580634 29,14.5461821 C29.00029,6.5120213 22.51094,0.0023283 14.501886,0 L14.501886,0 L14.501886,0 Z M2.325106,14.5461821 C2.330329,11.943993 3.148497,9.5385469 4.530679,7.5591835 C4.541994,8.71112 4.967615,10.1680665 6.368076,11.8540616 C7.995418,13.8121791 9.703126,14.6294196 12.389155,16.2615723 C15.073733,17.8919787 14.665519,18.6271459 14.013016,19.3626041 C13.362833,20.096025 11.818468,22.7866904 14.257016,24.2573158 C16.136481,25.3865512 16.456495,25.479684 16.129518,26.4587428 C16.106018,26.5303387 16.080196,26.5815617 16.055245,26.6476278 C15.545776,26.7136939 15.030214,26.7590961 14.502466,26.7605513 C7.77782,26.7494918 2.337582,21.2933638 2.325106,14.5461821 L2.325106,14.5461821 L2.325106,14.5461821 Z M19.925006,25.4639679 C20.475674,24.6490557 21.06609,23.5620211 21.575849,22.1356338 C22.717803,18.955148 23.285008,14.7929841 21.090171,15.2828045 C19.15645,15.7132528 16.780281,16.179499 15.638908,16.3416083 C14.501886,16.5051728 13.118253,15.3625495 11.573888,14.5473463 C10.029523,13.7321431 9.13418,12.3432999 10.352729,11.4466055 C11.573888,10.5496201 14.012436,13.6503608 14.828573,12.6713021 C15.638908,11.6922433 15.073443,10.7929295 16.128648,8.6735758 C17.185303,6.5516028 17.285979,6.9410144 18.080646,5.1650879 C18.480736,4.2698487 18.402981,3.5041223 18.153179,2.8975948 C23.08975,4.4569875 26.668221,9.0763753 26.677795,14.5458911 C26.669381,19.3340822 23.919814,23.4619033 19.925006,25.4639679 L19.925006,25.4639679 L19.925006,25.4639679 Z" id="Shape"></path>
                            </g>
                        </g>
                    </g>
                </g>
            </g>
        </g>
    </g>
</svg>