<?xml version="1.0" encoding="UTF-8" standalone="no"?>
<svg width="17px" height="46px" viewBox="0 0 17 46" version="1.1" xmlns="http://www.w3.org/2000/svg" xmlns:xlink="http://www.w3.org/1999/xlink">
    <!-- Generator: Sketch 3.8.3 (29802) - http://www.bohemiancoding.com/sketch -->
    <title>t&amp;t-map-pin-large-02</title>
    <desc>Created with Sketch.</desc>
    <defs></defs>
    <g id="Page-1" stroke="none" stroke-width="1" fill="none" fill-rule="evenodd">
        <g id="t&amp;t-map-pin-large-02">
            <path d="M15.94,6 C14.6343979,2.31681867 10.8589689,0.115839275 7.01059242,0.794381844 C3.16221596,1.47292441 0.36720156,4.83239898 0.4,8.74 C0.405333451,9.96990682 0.696315029,11.1817595 1.25,12.28 C1.25,12.28 1.81,13.28 2.08,13.61 L7.63,22.26 C7.81576173,22.5364295 8.12695245,22.7022366 8.46,22.7022366 C8.79304755,22.7022366 9.10423827,22.5364295 9.29,22.26 L14.84,13.52 C15.05,13.24 15.59,12.29 15.59,12.29 C16.5907583,10.337127 16.7179202,8.0518456 15.94,6 L15.94,6 Z M8.42,12.51 C6.33236365,12.51 4.64,10.8176364 4.64,8.73 C4.64,6.64236365 6.33236365,4.95 8.42,4.95 C10.5076364,4.95 12.2,6.64236365 12.2,8.73 C12.2,9.73251833 11.8017511,10.6939761 11.0928636,11.4028636 C10.3839761,12.1117511 9.42251833,12.51 8.42,12.51 L8.42,12.51 Z" id="Shape" fill="#FFFFFF"></path>
            <path d="M15.94,29 C14.6343979,25.3168187 10.8589689,23.1158393 7.01059242,23.7943818 C3.16221596,24.4729244 0.36720156,27.832399 0.4,31.74 C0.405333451,32.9699068 0.696315029,34.1817595 1.25,35.28 C1.25,35.28 1.81,36.28 2.08,36.61 L7.63,45.26 C7.81576173,45.5364295 8.12695245,45.7022366 8.46,45.7022366 C8.79304755,45.7022366 9.10423827,45.5364295 9.29,45.26 L14.84,36.52 C15.05,36.24 15.59,35.29 15.59,35.29 C16.5907583,33.337127 16.7179202,31.0518456 15.94,29 L15.94,29 Z M8.42,35.51 C6.33236365,35.51 4.64,33.8176364 4.64,31.73 C4.64,29.6423636 6.33236365,27.95 8.42,27.95 C10.5076364,27.95 12.2,29.6423636 12.2,31.73 C12.2,32.7325183 11.8017511,33.6939761 11.0928636,34.4028636 C10.3839761,35.1117511 9.42251833,35.51 8.42,35.51 L8.42,35.51 Z" id="Shape-Copy" fill="#144178"></path>
        </g>
    </g>
</svg>