<?xml version="1.0" encoding="UTF-8"?>
<svg width="548px" height="113px" viewBox="0 0 548 113" version="1.1" xmlns="http://www.w3.org/2000/svg" xmlns:xlink="http://www.w3.org/1999/xlink">
    <!-- Generator: Sketch 53.2 (72643) - https://sketchapp.com -->
    <title>svg-icons</title>
    <desc>Created with Sketch.</desc>
    <defs>
        <polyline id="path-1" points="0 0.194727273 16.7361136 0.194727273 16.7361136 17 0 17"></polyline>
        <polyline id="path-3" points="0 0.194727273 16.7361136 0.194727273 16.7361136 17 0 17"></polyline>
        <polyline id="path-5" points="0 0.194727273 16.7361136 0.194727273 16.7361136 17 0 17"></polyline>
        <polygon id="path-7" points="0 0.458823529 20.8568182 0.458823529 20.8568182 16 0 16"></polygon>
    </defs>
    <g id="Page-1" stroke="none" stroke-width="1" fill="none" fill-rule="evenodd">
        <g id="svg-icons" transform="translate(0.000000, -9.000000)">
            <g id="icon-linkedin" transform="translate(510.000000, 48.000000)">
                <polygon id="Fill-1" fill="#54616B" fill-rule="nonzero" points="0.27625 17 3.92275 17 3.92275 5.77381818 0.27625 5.77381818"></polygon>
                <g id="Group-7">
                    <path d="M5.95540909,16.9581182 L5.95540909,5.79182273 L9.26384091,5.79182273 L9.26384091,7.28048182 C9.26384091,7.28048182 10.2015455,5.43327727 12.6279091,5.48852727 C12.6279091,5.48852727 16.5425455,5.07511818 16.7361136,9.54109545 L16.7361136,16.9863227 L13.2893636,16.9863227 L13.2893636,10.4788 C13.2893636,10.4788 13.2341136,8.3283 11.3042273,8.57634545 C11.3042273,8.57634545 9.65020455,8.49366364 9.45663636,10.5889136 L9.45663636,16.9581182 L5.95540909,16.9581182 Z" id="Fill-2" fill="#54616B" fill-rule="nonzero"></path>
                    <g id="Group-6">
                        <g id="Fill-4-Clipped">
                            <mask id="mask-2" fill="white">
                                <use xlink:href="#path-1"></use>
                            </mask>
                            <g id="path-1"></g>
                            <path d="M4.08096591,2.23476591 C4.08096591,3.36256136 3.16760227,4.27515227 2.04057955,4.27515227 C0.913556818,4.27515227 -0.000193181818,3.36256136 -0.000193181818,2.23476591 C-0.000193181818,1.10812955 0.913556818,0.194765909 2.04057955,0.194765909 C3.16760227,0.194765909 4.08096591,1.10812955 4.08096591,2.23476591" id="Fill-4" fill="#54616B" fill-rule="nonzero" mask="url(#mask-2)"></path>
                        </g>
                    </g>
                </g>
            </g>
            <g id="icon-twitter" transform="translate(486.000000, 48.000000)" fill="#54616B" fill-rule="nonzero">
                <g id="Imported-Layers-Copy-3">
                    <g id="Design-01.12.15">
                        <g id="T&amp;T-Projects-Case-Study">
                            <g id="Imported-Layers-Copy-3-+-Page-1-Copy-+-Page-1-Copy-2">
                                <path d="M15.160318,3.90407806 C15.160318,8.5218191 11.6783951,13.842606 5.3144274,13.842606 C3.35340106,13.842606 1.53240107,13.2692868 0,12.2742728 C0.278737904,12.3067874 0.546628697,12.3177362 0.835556312,12.3177362 C2.45374818,12.3177362 3.9427608,11.7663146 5.1319987,10.8253811 C3.61077344,10.7928664 2.33574475,9.7872354 1.89660107,8.4030411 C2.1109137,8.435224 2.32489764,8.4567898 2.55005738,8.4567898 C2.86067922,8.4567898 3.17162976,8.4136582 3.46055738,8.3380119 C1.87523555,8.0135291 0.685668949,6.6077691 0.685668949,4.91004089 L0.685668949,4.86657746 C1.14650685,5.12603093 1.68228844,5.28860408 2.24995396,5.30983813 C1.31808844,4.68277027 0.707363172,3.61210995 0.707363172,2.4007741 C0.707363172,1.75214041 0.878616059,1.1572554 1.17839079,0.63834845 C2.88204475,2.75777146 5.44262054,4.14196571 8.31447558,4.29359005 C8.26056872,4.0338048 8.22835608,3.76340252 8.22835608,3.49333202 C8.22835608,1.56833322 9.77127557,0 11.6889135,0 C12.6852042,0 13.5855145,0.42169484 14.2176053,1.10317494 C14.9995835,0.95188238 15.7496777,0.65958249 16.4139811,0.25978526 C16.1566087,1.07066031 15.6103087,1.75214041 14.8924272,2.18478406 C15.5889432,2.10880599 16.2637651,1.91438178 16.8853374,1.6439795 C16.4139811,2.33607662 15.8249501,2.95252746 15.1497995,3.44986859 C15.160318,3.60149293 15.160318,3.7527855 15.160318,3.90407806 L15.160318,3.90407806 Z" id="Imported-Layers-Copy-3"></path>
                            </g>
                        </g>
                    </g>
                </g>
            </g>
            <g id="icon-twitter-white" transform="translate(486.000000, 28.000000)" fill="#FFFFFF" fill-rule="nonzero">
                <g id="Imported-Layers-Copy-2">
                    <g id="Design-01.12.15">
                        <g id="T&amp;T-Projects-Case-Study">
                            <g id="Group">
                                <g id="Imported-Layers-Copy-2-+-Page-1">
                                    <path d="M15.160318,3.90407806 C15.160318,8.5218191 11.6783951,13.842606 5.3144274,13.842606 C3.35340106,13.842606 1.53240107,13.2692868 0,12.2742728 C0.278737904,12.3067874 0.546628697,12.3177362 0.835556312,12.3177362 C2.45374818,12.3177362 3.9427608,11.7663146 5.1319987,10.8253811 C3.61077344,10.7928664 2.33574475,9.7872354 1.89660107,8.4030411 C2.1109137,8.435224 2.32489764,8.4567898 2.55005738,8.4567898 C2.86067922,8.4567898 3.17162976,8.4136582 3.46055738,8.3380119 C1.87523555,8.0135291 0.685668949,6.6077691 0.685668949,4.91004089 L0.685668949,4.86657746 C1.14650685,5.12603093 1.68228844,5.28860408 2.24995396,5.30983813 C1.31808844,4.68277027 0.707363172,3.61210995 0.707363172,2.4007741 C0.707363172,1.75214041 0.878616059,1.1572554 1.17839079,0.63834845 C2.88204475,2.75777146 5.44262054,4.14196571 8.31447558,4.29359005 C8.26056872,4.0338048 8.22835608,3.76340252 8.22835608,3.49333202 C8.22835608,1.56833322 9.77127557,0 11.6889135,0 C12.6852042,0 13.5855145,0.42169484 14.2176053,1.10317494 C14.9995835,0.95188238 15.7496777,0.65958249 16.4139811,0.25978526 C16.1566087,1.07066031 15.6103087,1.75214041 14.8924272,2.18478406 C15.5889432,2.10880599 16.2637651,1.91438178 16.8853374,1.6439795 C16.4139811,2.33607662 15.8249501,2.95252746 15.1497995,3.44986859 C15.160318,3.60149293 15.160318,3.7527855 15.160318,3.90407806 L15.160318,3.90407806 Z" id="Imported-Layers-Copy-2"></path>
                                </g>
                            </g>
                        </g>
                    </g>
                </g>
            </g>
            <g id="icon-twitter-cyan" transform="translate(486.000000, 10.000000)" fill="#009FE4" fill-rule="nonzero">
                <g id="icon-twitter">
                    <g id="Page-1">
                        <g id="icon-twitter">
                            <g id="Design-01.12.15">
                                <g id="T&amp;T-Projects-Case-Study">
                                    <g id="Imported-Layers-Copy-3-+-Page-1-Copy-+-Page-1-Copy-2">
                                        <path d="M15.160318,3.90407806 C15.160318,8.5218191 11.6783951,13.842606 5.3144274,13.842606 C3.35340106,13.842606 1.53240107,13.2692868 0,12.2742728 C0.278737904,12.3067874 0.546628697,12.3177362 0.835556312,12.3177362 C2.45374818,12.3177362 3.9427608,11.7663146 5.1319987,10.8253811 C3.61077344,10.7928664 2.33574475,9.7872354 1.89660107,8.4030411 C2.1109137,8.435224 2.32489764,8.4567898 2.55005738,8.4567898 C2.86067922,8.4567898 3.17162976,8.4136582 3.46055738,8.3380119 C1.87523555,8.0135291 0.685668949,6.6077691 0.685668949,4.91004089 L0.685668949,4.86657746 C1.14650685,5.12603093 1.68228844,5.28860408 2.24995396,5.30983813 C1.31808844,4.68277027 0.707363172,3.61210995 0.707363172,2.4007741 C0.707363172,1.75214041 0.878616059,1.1572554 1.17839079,0.63834845 C2.88204475,2.75777146 5.44262054,4.14196571 8.31447558,4.29359005 C8.26056872,4.0338048 8.22835608,3.76340252 8.22835608,3.49333202 C8.22835608,1.56833322 9.77127557,0 11.6889135,0 C12.6852042,0 13.5855145,0.42169484 14.2176053,1.10317494 C14.9995835,0.95188238 15.7496777,0.65958249 16.4139811,0.25978526 C16.1566087,1.07066031 15.6103087,1.75214041 14.8924272,2.18478406 C15.5889432,2.10880599 16.2637651,1.91438178 16.8853374,1.6439795 C16.4139811,2.33607662 15.8249501,2.95252746 15.1497995,3.44986859 C15.160318,3.60149293 15.160318,3.7527855 15.160318,3.90407806 L15.160318,3.90407806 L15.160318,3.90407806 Z" id="Imported-Layers-Copy-3"></path>
                                    </g>
                                </g>
                            </g>
                        </g>
                    </g>
                </g>
            </g>
            <g id="icon-linkedin-white" transform="translate(510.000000, 28.000000)">
                <polygon id="Fill-1" fill="#FFFFFF" fill-rule="nonzero" points="0.27625 17 3.92275 17 3.92275 5.77381818 0.27625 5.77381818"></polygon>
                <g id="Group-7">
                    <path d="M5.95540909,16.9581182 L5.95540909,5.79182273 L9.26384091,5.79182273 L9.26384091,7.28048182 C9.26384091,7.28048182 10.2015455,5.43327727 12.6279091,5.48852727 C12.6279091,5.48852727 16.5425455,5.07511818 16.7361136,9.54109545 L16.7361136,16.9863227 L13.2893636,16.9863227 L13.2893636,10.4788 C13.2893636,10.4788 13.2341136,8.3283 11.3042273,8.57634545 C11.3042273,8.57634545 9.65020455,8.49366364 9.45663636,10.5889136 L9.45663636,16.9581182 L5.95540909,16.9581182 Z" id="Fill-2" fill="#FFFFFF" fill-rule="nonzero"></path>
                    <g id="Group-6">
                        <g id="Fill-4-Clipped">
                            <mask id="mask-4" fill="white">
                                <use xlink:href="#path-3"></use>
                            </mask>
                            <g id="path-3"></g>
                            <path d="M4.08096591,2.23476591 C4.08096591,3.36256136 3.16760227,4.27515227 2.04057955,4.27515227 C0.913556818,4.27515227 -0.000193181818,3.36256136 -0.000193181818,2.23476591 C-0.000193181818,1.10812955 0.913556818,0.194765909 2.04057955,0.194765909 C3.16760227,0.194765909 4.08096591,1.10812955 4.08096591,2.23476591" id="Fill-4" fill="#FFFFFF" fill-rule="nonzero" mask="url(#mask-4)"></path>
                        </g>
                    </g>
                </g>
            </g>
            <g id="icon-linkedin-cyan" transform="translate(510.000000, 10.000000)">
                <polygon id="Fill-1" fill="#009FE4" fill-rule="nonzero" points="0.27625 17 3.92275 17 3.92275 5.77381818 0.27625 5.77381818"></polygon>
                <g id="Group-7">
                    <path d="M5.95540909,16.9581182 L5.95540909,5.79182273 L9.26384091,5.79182273 L9.26384091,7.28048182 C9.26384091,7.28048182 10.2015455,5.43327727 12.6279091,5.48852727 C12.6279091,5.48852727 16.5425455,5.07511818 16.7361136,9.54109545 L16.7361136,16.9863227 L13.2893636,16.9863227 L13.2893636,10.4788 C13.2893636,10.4788 13.2341136,8.3283 11.3042273,8.57634545 C11.3042273,8.57634545 9.65020455,8.49366364 9.45663636,10.5889136 L9.45663636,16.9581182 L5.95540909,16.9581182 Z" id="Fill-2" fill="#009FE4" fill-rule="nonzero"></path>
                    <g id="Group-6">
                        <g id="Fill-4-Clipped">
                            <mask id="mask-6" fill="white">
                                <use xlink:href="#path-5"></use>
                            </mask>
                            <g id="path-5"></g>
                            <path d="M4.08096591,2.23476591 C4.08096591,3.36256136 3.16760227,4.27515227 2.04057955,4.27515227 C0.913556818,4.27515227 -0.000193181818,3.36256136 -0.000193181818,2.23476591 C-0.000193181818,1.10812955 0.913556818,0.194765909 2.04057955,0.194765909 C3.16760227,0.194765909 4.08096591,1.10812955 4.08096591,2.23476591" id="Fill-4" fill="#009FE4" fill-rule="nonzero" mask="url(#mask-6)"></path>
                        </g>
                    </g>
                </g>
            </g>
            <g id="icon-reset" transform="translate(470.000000, 23.000000)" fill="#009FE4" fill-rule="nonzero">
                <g id="Line">
                    <g id="Design-01.12.15">
                        <g id="3.-Spotlight-landing">
                            <polygon id="Line" points="4.241239 5.332763 0.800584 1.892107 0.309061 1.400585 1.292106 0.417541 1.783628 0.909063 5.224283 4.349718 8.773418 0.800584 9.26494 0.309061 10.247985 1.292106 9.756463 1.783628 6.207328 5.332763 9.756463 8.881897 10.247985 9.37342 9.26494 10.356464 8.773418 9.864942 5.224283 6.315807 1.783628 9.756463 1.292106 10.247985 0.309061 9.26494 0.800584 8.773418"></polygon>
                        </g>
                    </g>
                </g>
            </g>
            <g id="icon-reset-hover" transform="translate(470.000000, 10.000000)" fill="#FFFFFF" fill-rule="nonzero">
                <g id="icon-reset">
                    <g id="Page-1">
                        <g id="icon-reset">
                            <g id="Design-01.12.15">
                                <g id="3.-Spotlight-landing">
                                    <polygon id="Line" points="4.241239 5.332763 0.800584 1.892107 0.309061 1.400585 1.292106 0.417541 1.783628 0.909063 5.224283 4.349718 8.773418 0.800584 9.26494 0.309061 10.247985 1.292106 9.756463 1.783628 6.207328 5.332763 9.756463 8.881897 10.247985 9.37342 9.26494 10.356464 8.773418 9.864942 5.224283 6.315807 1.783628 9.756463 1.292106 10.247985 0.309061 9.26494 0.800584 8.773418"></polygon>
                                </g>
                            </g>
                        </g>
                    </g>
                </g>
            </g>
            <g id="icon-mobile-nav-arrow" transform="translate(459.000000, 10.000000)" fill="#231F20" fill-rule="nonzero">
                <g id="ARROW">
                    <g id="Design-01.12.15">
                        <g id="1.-Home-Mobile-Menu">
                            <g id="ARROW">
                                <g id="Layer_1">
                                    <path d="M0.187666667,10.612 C0.252666667,10.677 0.338,10.7096667 0.423333333,10.7096667 C0.508666667,10.7096667 0.594,10.677 0.659,10.612 L5.659,5.612 C5.78933333,5.48166667 5.78933333,5.271 5.659,5.14066667 L0.659,0.140666667 C0.528666667,0.0103333333 0.318,0.0103333333 0.187666667,0.140666667 C0.0573333333,0.271 0.0573333333,0.481666667 0.187666667,0.612 L4.952,5.37633333 L0.187666667,10.1406667 C0.0573333333,10.271 0.0573333333,10.482 0.187666667,10.612 L0.187666667,10.612 L0.187666667,10.612 Z" id="Shape"></path>
                                </g>
                            </g>
                        </g>
                    </g>
                </g>
            </g>
            <g id="icon-select-arrow" transform="translate(438.000000, 40.000000)" stroke="#009FE4">
                <g id="Shape-Copy-2">
                    <g id="Design-01.12.15">
                        <g id="3.-Spotlight-landing">
                            <path d="M4.18463972,10.7727843 C4.29004772,10.7727843 4.39545672,10.7282393 4.47574872,10.6396022 L10.6520377,3.82142023 C10.8130327,3.64369322 10.8130327,3.35642023 10.6520377,3.17869323 L4.47574872,-3.63948877 C4.31475272,-3.81721577 4.05452572,-3.81721577 3.89353072,-3.63948877 C3.73253472,-3.46176077 3.73253472,-3.17448877 3.89353072,-2.99676077 L9.77870972,3.50005723 L3.89353072,9.99687523 C3.73253472,10.1746023 3.73253472,10.4623302 3.89353072,10.6396022 C3.97382172,10.7282393 4.07923072,10.7727843 4.18463972,10.7727843 L4.18463972,10.7727843 Z" id="Shape-Copy-2" transform="translate(7.272784, 3.500000) rotate(90.000000) translate(-7.272784, -3.500000) "></path>
                        </g>
                    </g>
                </g>
            </g>
            <g id="icon-select-arrow-white" transform="translate(438.000000, 24.000000)" fill="#FFFFFF" fill-rule="nonzero" stroke="#FFFFFF">
                <g id="Shape-Copy">
                    <g id="Design-01.12.15">
                        <g id="3.-Spotlight-landing">
                            <g id="Rectangle-19-Copy-3-+-Shape-Copy-+-noun_24407">
                                <path d="M3.62522832,10.9174914 C3.71189502,11.0061277 3.82567282,11.0506732 3.93945062,11.0506732 C4.05322832,11.0506732 4.16700612,11.0061277 4.25367282,10.9174914 L10.9203394,4.09930949 C11.0941172,3.92158229 11.0941172,3.63430949 10.9203394,3.45658229 L4.25367282,-3.36159956 C4.07989502,-3.53932683 3.79900612,-3.53932683 3.62522832,-3.36159956 C3.45145062,-3.18387228 3.45145062,-2.89659951 3.62522832,-2.71887231 L9.97767282,3.77794589 L3.62522832,10.2747641 C3.45145062,10.4524914 3.45145062,10.7402186 3.62522832,10.9174914 L3.62522832,10.9174914 L3.62522832,10.9174914 Z" id="Shape-Copy" transform="translate(7.272784, 3.777889) rotate(90.000000) translate(-7.272784, -3.777889) "></path>
                            </g>
                        </g>
                    </g>
                </g>
            </g>
            <g id="icon-select-arrow-navy" transform="translate(438.000000, 10.000000)" fill="#FFFFFF" fill-rule="nonzero" stroke="#144178">
                <g id="Shape-Copy">
                    <g id="Design-01.12.15">
                        <g id="1.-Homepage-menu-Copy">
                            <path d="M3.62522874,10.9174914 C3.71189474,11.0061277 3.82567274,11.0506732 3.93945074,11.0506732 C4.05322874,11.0506732 4.16700574,11.0061277 4.25367274,10.9174914 L10.9203398,4.0993095 C11.0941168,3.9215823 11.0941168,3.6343095 10.9203398,3.4565823 L4.25367274,-3.3615995 C4.07989474,-3.5393268 3.79900574,-3.5393268 3.62522874,-3.3615995 C3.45145074,-3.1838723 3.45145074,-2.8965995 3.62522874,-2.7188723 L9.97767274,3.7779459 L3.62522874,10.2747641 C3.45145074,10.4524914 3.45145074,10.7402186 3.62522874,10.9174914 L3.62522874,10.9174914 L3.62522874,10.9174914 Z" id="Shape-Copy" transform="translate(7.272784, 3.777889) rotate(90.000000) translate(-7.272784, -3.777889) "></path>
                        </g>
                    </g>
                </g>
            </g>
            <g id="icon-quote" transform="translate(388.000000, 10.000000)" fill-rule="nonzero">
                <g id="Oval-46-+-“">
                    <g id="Design-01.12.15">
                        <g id="2a-Article-Rich:-Project-Case-study">
                            <g id="Oval-46-+-“">
                                <ellipse id="Oval-46" fill="#144178" cx="22.5" cy="22.5229202" rx="22.5" ry="22.5229202"></ellipse>
                                <path d="M19.8845881,26.3940471 C19.8845881,27.531574 19.4273838,28.5268951 18.5129616,29.3800403 C17.5985395,30.2331855 16.5198926,30.6597517 15.2769886,30.6597517 C13.3238539,30.6597517 11.8235138,30.0110156 10.7759233,28.713524 C9.72833283,27.4160323 9.20454545,25.6208996 9.20454545,23.3280719 C9.20454545,21.195209 10.1056373,19.0446044 11.907848,16.8761938 C13.7100587,14.7077831 15.8806691,13.0637259 18.4197443,11.9439728 L19.5916193,13.8368792 C17.5852172,14.8144414 16.0138551,15.9519513 14.8774858,17.2494429 C13.7411165,18.5469345 13.0841628,20.1198974 12.9066051,21.9683786 L14.3980824,21.9683786 C15.4989402,21.9683786 16.3955931,22.0927937 17.0880682,22.3416278 C17.7805432,22.5904618 18.3398416,22.9370468 18.7659801,23.3813933 C19.1743628,23.8079658 19.4628898,24.278966 19.6315696,24.7944079 C19.8002494,25.3098498 19.8845881,25.8430575 19.8845881,26.3940471 L19.8845881,26.3940471 L19.8845881,26.3940471 Z M33.0149148,26.3940471 C33.0149148,27.531574 32.5577105,28.5268951 31.6432884,29.3800403 C30.7288662,30.2331855 29.6502193,30.6597517 28.4073153,30.6597517 C26.4541806,30.6597517 24.9538405,30.0110156 23.90625,28.713524 C22.8586595,27.4160323 22.3348722,25.6208996 22.3348722,23.3280719 C22.3348722,21.195209 23.235964,19.0446044 25.0381747,16.8761938 C26.8403854,14.7077831 29.0109958,13.0637259 31.550071,11.9439728 L32.721946,13.8368792 C30.7155439,14.8144414 29.1441818,15.9519513 28.0078125,17.2494429 C26.8714432,18.5469345 26.2144895,20.1198974 26.0369318,21.9683786 L27.5284091,21.9683786 C28.6292669,21.9683786 29.5259198,22.0927937 30.2183949,22.3416278 C30.9108699,22.5904618 31.4701683,22.9370468 31.8963068,23.3813933 C32.3046895,23.8079658 32.5932165,24.278966 32.7618963,24.7944079 C32.9305761,25.3098498 33.0149148,25.8430575 33.0149148,26.3940471 L33.0149148,26.3940471 L33.0149148,26.3940471 Z" id="“" fill="#FFFFFF"></path>
                            </g>
                        </g>
                    </g>
                </g>
            </g>
            <g id="icon-plus" transform="translate(359.000000, 24.000000)" fill="#FFFFFF" fill-rule="nonzero" stroke="#FFFFFF">
                <g id="Shape-Copy-8">
                    <g id="Design-01.12.15">
                        <g id="2a:-Article-Rich-mobile:-Project-Case-study">
                            <path d="M3.62897081,20.1018596 C3.73122181,20.2041096 3.86545881,20.2549696 3.99969481,20.2549696 C4.13393181,20.2549696 4.26816881,20.2035896 4.37094381,20.1013296 L11.8651358,12.5982296 L19.3593278,20.1013296 C19.4615788,20.2041096 19.5958158,20.2549696 19.7305768,20.2549696 C19.8648138,20.2549696 19.9990508,20.2035896 20.1013018,20.1018596 C20.3063278,19.8973596 20.3063278,19.5654396 20.1018258,19.3604096 L12.6149748,11.8651696 L20.1013018,4.3704496 C20.3058028,4.1654296 20.3058028,3.8335096 20.1007768,3.6289996 C19.8952268,3.4239796 19.5638298,3.4239796 19.3593278,3.6295296 L11.8646118,11.1326296 L4.37041981,3.6295296 C4.16539381,3.4244996 3.83347181,3.4244996 3.62897081,3.6289996 C3.42394481,3.8335096 3.42394481,4.1654296 3.62844681,4.3704496 L11.1142488,11.8651696 L3.62844681,19.3604096 C3.42394481,19.5649096 3.42394481,19.8973596 3.62897081,20.1018596 L3.62897081,20.1018596 L3.62897081,20.1018596 Z" id="Shape-Copy-8" transform="translate(11.865136, 11.865135) rotate(-45.000000) translate(-11.865136, -11.865135) "></path>
                        </g>
                    </g>
                </g>
            </g>
            <g id="icon-minus" transform="translate(359.000000, 0.000000)" stroke="#009FDA">
                <g id="Shape-Copy-4">
                    <g id="Design-01.12.15">
                        <g id="2a:-Article-Rich-mobile:-Project-Case-study">
                            <path d="M11.8649987,12.5978885 L19.3591907,20.1009985 C19.4614417,20.2037685 19.5956787,20.2546385 19.7304397,20.2546385 C19.8646767,20.2546385 19.9989137,20.2032485 20.1011647,20.1015185 C20.3061907,19.8970185 20.3061907,19.5650985 20.1016887,19.3600685 L12.6148377,11.8648285 L11.8644747,11.1322985 L4.37028264,3.62918851 C4.16525664,3.42416851 3.83333464,3.42416851 3.62883364,3.62866851 C3.42380764,3.83316851 3.42380764,4.16508851 3.62830964,4.37011851 L11.1141117,11.8648285 L11.8649987,12.5978885 L11.8649987,12.5978885 Z" id="Shape-Copy-4" transform="translate(11.864999, 11.864998) rotate(-45.000000) translate(-11.864999, -11.864998) "></path>
                        </g>
                    </g>
                </g>
            </g>
            <g id="icon-minus-copy" transform="translate(328.000000, 0.000000)" stroke="#FFFFFF">
                <g id="Shape-Copy-4">
                    <g id="Design-01.12.15">
                        <g id="2a:-Article-Rich-mobile:-Project-Case-study">
                            <path d="M11.864997,12.5978891 L19.359189,20.1009991 C19.46144,20.2037691 19.595677,20.2546391 19.730438,20.2546391 C19.864675,20.2546391 19.998912,20.2032491 20.101163,20.1015191 C20.306189,19.8970191 20.306189,19.5650991 20.101687,19.3600691 L12.614836,11.8648291 L11.864473,11.1322991 L4.37028109,3.62918912 C4.16525509,3.42416912 3.83333309,3.42416912 3.62883209,3.62866912 C3.42380609,3.83316912 3.42380609,4.16508912 3.62830809,4.37011912 L11.11411,11.8648291 L11.864997,12.5978891 L11.864997,12.5978891 Z" id="Shape-Copy-4" transform="translate(11.864998, 11.864999) rotate(-45.000000) translate(-11.864998, -11.864999) "></path>
                        </g>
                    </g>
                </g>
            </g>
            <g id="icon-plus-copy" transform="translate(328.000000, 34.000000)" fill="#009FE4" fill-rule="nonzero" stroke="#009FE4">
                <g id="Shape-Copy-8">
                    <g id="Design-01.12.15">
                        <g id="2a:-Article-Rich-mobile:-Project-Case-study">
                            <path d="M3.62897081,20.1018596 C3.73122181,20.2041096 3.86545881,20.2549696 3.99969481,20.2549696 C4.13393181,20.2549696 4.26816881,20.2035896 4.37094381,20.1013296 L11.8651358,12.5982296 L19.3593278,20.1013296 C19.4615788,20.2041096 19.5958158,20.2549696 19.7305768,20.2549696 C19.8648138,20.2549696 19.9990508,20.2035896 20.1013018,20.1018596 C20.3063278,19.8973596 20.3063278,19.5654396 20.1018258,19.3604096 L12.6149748,11.8651696 L20.1013018,4.3704496 C20.3058028,4.1654296 20.3058028,3.8335096 20.1007768,3.6289996 C19.8952268,3.4239796 19.5638298,3.4239796 19.3593278,3.6295296 L11.8646118,11.1326296 L4.37041981,3.6295296 C4.16539381,3.4244996 3.83347181,3.4244996 3.62897081,3.6289996 C3.42394481,3.8335096 3.42394481,4.1654296 3.62844681,4.3704496 L11.1142488,11.8651696 L3.62844681,19.3604096 C3.42394481,19.5649096 3.42394481,19.8973596 3.62897081,20.1018596 L3.62897081,20.1018596 L3.62897081,20.1018596 Z" id="Shape-Copy-8" transform="translate(11.865136, 11.865135) rotate(-45.000000) translate(-11.865136, -11.865135) "></path>
                        </g>
                    </g>
                </g>
            </g>
            <g id="icon-email" transform="translate(266.000000, 29.000000)">
                <g id="Page-1-Copy-2">
                    <g id="Design-01.12.15">
                        <g id="T&amp;T-Projects-Case-Study">
                            <g id="Imported-Layers-Copy-3-+-Page-1-Copy-+-Page-1-Copy-2">
                                <g id="Page-1-Copy-2">
                                    <g id="mask-2" fill="#FFFFFF" fill-rule="nonzero">
                                        <polygon id="path-1" points="0 0.458823529 20.8568182 0.458823529 20.8568182 16 0 16"></polygon>
                                    </g>
                                    <g id="Fill-1-Clipped">
                                        <g>
                                            <mask id="mask-8" fill="white">
                                                <use xlink:href="#path-7"></use>
                                            </mask>
                                            <g id="path-7"></g>
                                            <path d="M12.3272864,9.93703529 L13.0431955,9.28527059 L18.3986727,14.1596235 L2.50024091,14.1596235 L8.15449091,9.26456471 L8.97874091,9.97844706 C9.42499091,10.3638588 10.0106045,10.5760941 10.6277182,10.5765647 C11.26965,10.5760941 11.8729227,10.3492706 12.3272864,9.93703529 L12.3272864,9.93703529 L12.3272864,9.93703529 Z M11.37465,8.92056471 C11.0057182,9.25797647 10.2864682,9.26974118 9.90512727,8.93844706 L2.23630909,2.29938824 L18.65115,2.29797647 L11.37465,8.92056471 L11.37465,8.92056471 Z M18.9900136,3.87303529 L18.9900136,12.8142118 L14.0779227,8.34362353 L18.9900136,3.87303529 L18.9900136,3.87303529 Z M7.09065,8.34362353 L1.8669,12.8659765 L1.8669,3.8208 L7.09065,8.34362353 L7.09065,8.34362353 Z M20.3115818,0.9968 C19.9660364,0.655152941 19.4868545,0.458917647 18.9971727,0.458917647 L1.85878636,0.458917647 C1.37005909,0.458917647 0.890877273,0.655152941 0.546286364,0.996329412 C0.198831818,1.33750588 -0.000190909091,1.80950588 -0.000190909091,2.29232941 L-0.000190909091,14.1662118 C-0.000190909091,14.6490353 0.198831818,15.1215059 0.545331818,15.4617412 C0.890877273,15.8038588 1.37005909,16.0000941 1.85974091,16.0000941 L18.9981273,16.0000941 C19.4873318,16.0000941 19.9660364,15.8038588 20.3111045,15.4626824 C20.6580818,15.1215059 20.8571045,14.6490353 20.8571045,14.1662118 L20.8571045,2.2928 C20.8571045,1.80950588 20.6580818,1.33750588 20.3115818,0.9968 L20.3115818,0.9968 L20.3115818,0.9968 Z" id="Fill-1" fill="#54616B" fill-rule="nonzero" mask="url(#mask-8)"></path>
                                        </g>
                                    </g>
                                </g>
                            </g>
                        </g>
                    </g>
                </g>
            </g>
            <g id="icon-email-cyan" transform="translate(266.000000, 10.000000)" fill-rule="nonzero">
                <g id="icon-email">
                    <g id="Page-1">
                        <g id="icon-email">
                            <g id="Design-01.12.15">
                                <g id="T&amp;T-Projects-Case-Study">
                                    <g id="Imported-Layers-Copy-3-+-Page-1-Copy-+-Page-1-Copy-2">
                                        <g id="Page-1-Copy-2">
                                            <g id="mask-2" fill="#FFFFFF">
                                                <polygon id="path-1" points="0 0.458823529 20.8568182 0.458823529 20.8568182 16 0 16"></polygon>
                                            </g>
                                            <g id="Fill-1-Clipped">
                                                <g id="mask-2" fill="#FFFFFF">
                                                    <polygon id="path-1" points="0 0.458823529 20.8568182 0.458823529 20.8568182 16 0 16"></polygon>
                                                </g>
                                                <g id="Fill-1" fill="#009FE4">
                                                    <path d="M12.3272864,9.93703529 L13.0431955,9.28527059 L18.3986727,14.1596235 L2.50024091,14.1596235 L8.15449091,9.26456471 L8.97874091,9.97844706 C9.42499091,10.3638588 10.0106045,10.5760941 10.6277182,10.5765647 C11.26965,10.5760941 11.8729227,10.3492706 12.3272864,9.93703529 L12.3272864,9.93703529 L12.3272864,9.93703529 L12.3272864,9.93703529 Z M11.37465,8.92056471 C11.0057182,9.25797647 10.2864682,9.26974118 9.90512727,8.93844706 L2.23630909,2.29938824 L18.65115,2.29797647 L11.37465,8.92056471 L11.37465,8.92056471 L11.37465,8.92056471 Z M18.9900136,3.87303529 L18.9900136,12.8142118 L14.0779227,8.34362353 L18.9900136,3.87303529 L18.9900136,3.87303529 L18.9900136,3.87303529 Z M7.09065,8.34362353 L1.8669,12.8659765 L1.8669,3.8208 L7.09065,8.34362353 L7.09065,8.34362353 L7.09065,8.34362353 Z M20.3115818,0.9968 C19.9660364,0.655152941 19.4868545,0.458917647 18.9971727,0.458917647 L1.85878636,0.458917647 C1.37005909,0.458917647 0.890877273,0.655152941 0.546286364,0.996329412 C0.198831818,1.33750588 -0.000190909091,1.80950588 -0.000190909091,2.29232941 L-0.000190909091,14.1662118 C-0.000190909091,14.6490353 0.198831818,15.1215059 0.545331818,15.4617412 C0.890877273,15.8038588 1.37005909,16.0000941 1.85974091,16.0000941 L18.9981273,16.0000941 C19.4873318,16.0000941 19.9660364,15.8038588 20.3111045,15.4626824 C20.6580818,15.1215059 20.8571045,14.6490353 20.8571045,14.1662118 L20.8571045,2.2928 C20.8571045,1.80950588 20.6580818,1.33750588 20.3115818,0.9968 L20.3115818,0.9968 L20.3115818,0.9968 L20.3115818,0.9968 Z" id="Shape"></path>
                                                </g>
                                            </g>
                                        </g>
                                    </g>
                                </g>
                            </g>
                        </g>
                    </g>
                </g>
            </g>
            <g id="icon-download-hover" transform="translate(225.000000, 10.000000)" fill-rule="nonzero">
                <g id="Oval-1-+-DOWNLOAD-Copy">
                    <g id="Design-01.12.15">
                        <g id="2a-Article-Rich:-Project-Case-study">
                            <g id="Oval-1-+-DOWNLOAD-Copy">
                                <circle id="Oval-1" fill="#009FE4" cx="18.5" cy="18.5" r="18.5"></circle>
                                <g id="DOWNLOAD" transform="translate(12.081633, 9.816327)" fill="#FFFFFF">
                                    <g id="Layer_1">
                                        <path d="M0.427891156,10.4323983 C0.191267347,10.4323983 0,10.6271688 0,10.867154 L0,13.5335108 C0,13.773496 0.191267347,13.9682665 0.427891156,13.9682665 L12.4088435,13.9682665 C12.6454673,13.9682665 12.8367347,13.773496 12.8367347,13.5335108 L12.8367347,10.867154 C12.8367347,10.6271688 12.6454673,10.4323983 12.4088435,10.4323983 C12.1722197,10.4323983 11.9809524,10.6271688 11.9809524,10.867154 L11.9809524,13.0987551 L0.855782313,13.0987551 L0.855782313,10.867154 C0.855782313,10.6271688 0.664514966,10.4323983 0.427891156,10.4323983 L0.427891156,10.4323983 L0.427891156,10.4323983 Z" id="Shape"></path>
                                        <path d="M6.41836735,0.0560834879 C6.18174354,0.0560834879 5.99047619,0.250854051 5.99047619,0.490839208 L5.99047619,9.84243476 L3.27636259,7.17868646 C3.10734558,7.01174026 2.83563469,7.01652257 2.67175238,7.18912059 C2.50744218,7.36171861 2.51214898,7.63691899 2.68202177,7.80386518 L6.11499252,11.1736568 C6.11542041,11.1740915 6.11542041,11.1740915 6.1158483,11.1745263 L6.12098299,11.1793086 C6.13681497,11.1949598 6.15692585,11.2014811 6.1740415,11.2140891 C6.20057075,11.2336531 6.22538844,11.2553908 6.2561966,11.2679988 C6.30797143,11.2897365 6.3627415,11.3010402 6.41793946,11.3010402 C6.47313741,11.3010402 6.52790748,11.2893018 6.57968231,11.2679988 C6.60835102,11.2562604 6.63102925,11.2358268 6.65584694,11.2180019 C6.67552993,11.2045244 6.69778027,11.1962641 6.71532381,11.1788738 L10.1538571,7.80299567 C10.323302,7.63604947 10.3280088,7.3608491 10.1636986,7.18825108 C9.99938844,7.01565306 9.72853333,7.01087075 9.55866054,7.17781694 L6.8462585,9.84243476 L6.8462585,0.490839208 C6.8462585,0.250854051 6.65499116,0.0560834879 6.41836735,0.0560834879 L6.41836735,0.0560834879 L6.41836735,0.0560834879 Z" id="Shape"></path>
                                    </g>
                                </g>
                            </g>
                        </g>
                    </g>
                </g>
            </g>
            <g id="icon-download" transform="translate(226.000000, 48.000000)" fill-rule="nonzero">
                <g id="Oval-1-+-DOWNLOAD-Copy">
                    <g id="Design-01.12.15">
                        <g id="2a-Article-Rich:-Project-Case-study">
                            <g id="Oval-1-+-DOWNLOAD-Copy">
                                <circle id="Oval-1" stroke="#009FE4" fill="#FFFFFF" cx="18" cy="18" r="18"></circle>
                                <g id="DOWNLOAD" transform="translate(11.428572, 9.285715)" fill="#009FE4">
                                    <g id="Layer_1">
                                        <path d="M0.404761904,9.86848488 C0.180928571,9.86848488 1.00820253e-14,10.0527272 1.00820253e-14,10.2797403 L1.00820253e-14,12.8019697 C1.00820253e-14,13.0289827 0.180928571,13.2132251 0.404761904,13.2132251 L11.7380952,13.2132251 C11.9619285,13.2132251 12.1428571,13.0289827 12.1428571,12.8019697 L12.1428571,10.2797403 C12.1428571,10.0527272 11.9619285,9.86848488 11.7380952,9.86848488 C11.5142619,9.86848488 11.3333334,10.0527272 11.3333334,10.2797403 L11.3333334,12.3907143 L0.80952381,12.3907143 L0.80952381,10.2797403 C0.80952381,10.0527272 0.628595238,9.86848488 0.404761904,9.86848488 L0.404761904,9.86848488 L0.404761904,9.86848488 Z" id="Shape"></path>
                                        <path d="M6.07142857,0.053051948 C5.84759524,0.053051948 5.66666667,0.237294373 5.66666667,0.464307359 L5.66666667,9.31041126 L3.09926191,6.79064935 C2.93938095,6.63272727 2.68235714,6.63725108 2.52733333,6.80051948 C2.37190476,6.96378787 2.37635714,7.22411256 2.53704762,7.38203463 L5.78445238,10.5696754 C5.78485714,10.5700866 5.78485714,10.5700866 5.78526191,10.5704979 L5.79011904,10.5750216 C5.80509524,10.5898268 5.82411905,10.5959956 5.84030953,10.6079221 C5.86540476,10.6264286 5.88888096,10.6469913 5.91802381,10.6589178 C5.967,10.6794805 6.01880953,10.6901732 6.07102381,10.6901732 C6.12323809,10.6901732 6.17504762,10.6790693 6.22402381,10.6589178 C6.25114286,10.6478139 6.27259524,10.6284848 6.29607143,10.6116234 C6.31469047,10.5988744 6.33573809,10.5910606 6.35233333,10.5746104 L9.60499996,7.38121212 C9.76528568,7.22329004 9.76973805,6.96296536 9.61430949,6.79969697 C9.45888096,6.63642857 9.20266666,6.63190476 9.04197619,6.78982684 L6.47619047,9.31041126 L6.47619047,0.464307359 C6.47619047,0.237294373 6.29526191,0.053051948 6.07142857,0.053051948 L6.07142857,0.053051948 L6.07142857,0.053051948 Z" id="Shape"></path>
                                    </g>
                                </g>
                            </g>
                        </g>
                    </g>
                </g>
            </g>
            <g id="icon-search" transform="translate(201.000000, 10.000000)" fill="#FFFFFF" fill-rule="nonzero">
                <g id="Oval-79">
                    <g id="Design-01.12.15">
                        <g id="3.-Spotlight-landing">
                            <path d="M12.827102,16.744589 C11.601982,17.4156283 10.201509,17.79623 8.713981,17.79623 C3.901382,17.79623 0,13.8124082 0,8.898115 C0,3.9838218 3.901382,-3.55271368e-15 8.713981,-3.55271368e-15 C13.52658,-3.55271368e-15 17.427962,3.9838218 17.427962,8.898115 C17.427962,10.7162561 16.89395,12.4070364 15.977348,13.815832 C16.11452,13.9027331 16.244304,14.0059859 16.363894,14.1255761 L19.941496,17.7031786 C20.813761,18.5754437 20.822938,19.9804885 19.948469,20.854957 C19.080055,21.723371 17.667891,21.7191839 16.796691,20.847984 L13.219088,17.2703815 C13.05949,17.1107827 12.928785,16.9333473 12.827102,16.744589 L12.827102,16.744589 Z M8.713981,15.5717012 C12.32343,15.5717012 15.249467,12.5838349 15.249467,8.898115 C15.249467,5.2123951 12.32343,2.2245287 8.713981,2.2245287 C5.104532,2.2245287 2.178495,5.2123951 2.178495,8.898115 C2.178495,12.5838349 5.104532,15.5717012 8.713981,15.5717012 L8.713981,15.5717012 Z" id="Oval-79"></path>
                        </g>
                    </g>
                </g>
            </g>
            <g id="icon-search-hover" transform="translate(202.000000, 34.000000)" fill="#144178" fill-rule="nonzero">
                <g id="icon-search">
                    <g id="Page-1">
                        <g id="icon-search">
                            <g id="Design-01.12.15">
                                <g id="3.-Spotlight-landing">
                                    <path d="M12.827102,16.744589 C11.601982,17.4156283 10.201509,17.79623 8.713981,17.79623 C3.901382,17.79623 0,13.8124082 0,8.898115 C0,3.9838218 3.901382,-3.55271368e-15 8.713981,-3.55271368e-15 C13.52658,-3.55271368e-15 17.427962,3.9838218 17.427962,8.898115 C17.427962,10.7162561 16.89395,12.4070364 15.977348,13.815832 C16.11452,13.9027331 16.244304,14.0059859 16.363894,14.1255761 L19.941496,17.7031786 C20.813761,18.5754437 20.822938,19.9804885 19.948469,20.854957 C19.080055,21.723371 17.667891,21.7191839 16.796691,20.847984 L13.219088,17.2703815 C13.05949,17.1107827 12.928785,16.9333473 12.827102,16.744589 L12.827102,16.744589 L12.827102,16.744589 Z M8.713981,15.5717012 C12.32343,15.5717012 15.249467,12.5838349 15.249467,8.898115 C15.249467,5.2123951 12.32343,2.2245287 8.713981,2.2245287 C5.104532,2.2245287 2.178495,5.2123951 2.178495,8.898115 C2.178495,12.5838349 5.104532,15.5717012 8.713981,15.5717012 L8.713981,15.5717012 L8.713981,15.5717012 Z" id="Oval-79"></path>
                                </g>
                            </g>
                        </g>
                    </g>
                </g>
            </g>
            <g id="icon-carousel-right" transform="translate(291.000000, 11.000000)" fill-rule="nonzero" stroke="#FFFFFF">
                <circle id="Oval-1" stroke-width="2" fill="#009FE4" cx="17" cy="17" r="17"></circle>
                <path d="M23.9758345,16.9700286 L20.8501961,13.8443902 C20.7936221,13.7878161 20.7154811,13.752809 20.6292135,13.752809 C20.4563657,13.752809 20.3166496,13.892525 20.3166496,14.0653728 C20.3166496,14.1516404 20.3516568,14.2297814 20.4082308,14.2863555 L23.0003228,16.8784474 L10.6271706,16.8784474 C10.4543228,16.8784474 10.3146067,17.0181634 10.3146067,17.1910112 C10.3146067,17.363859 10.4543228,17.5035751 10.6271706,17.5035751 L23.0003228,17.5035751 L20.4082308,20.095667 C20.3516568,20.1525536 20.3166496,20.230382 20.3166496,20.3166496 C20.3166496,20.4894974 20.4563657,20.6292135 20.6292135,20.6292135 C20.7154811,20.6292135 20.7936221,20.5945189 20.8501961,20.5376323 L23.9758345,17.4119939 C24.0327211,17.3554198 24.0674157,17.2772789 24.0674157,17.1910112 C24.0674157,17.1047436 24.0327211,17.0269152 23.9758345,16.9700286" id="Page-1" fill="#FFFFFF"></path>
            </g>
            <g id="icon-carousel-left" transform="translate(160.000000, 28.000000) rotate(-180.000000) translate(-160.000000, -28.000000) translate(143.000000, 11.000000)" fill-rule="nonzero" stroke="#FFFFFF">
                <circle id="Oval-1" stroke-width="2" fill="#009FE4" cx="17" cy="17" r="17"></circle>
                <path d="M23.9758345,16.9700286 L20.8501961,13.8443902 C20.7936221,13.7878161 20.7154811,13.752809 20.6292135,13.752809 C20.4563657,13.752809 20.3166496,13.892525 20.3166496,14.0653728 C20.3166496,14.1516404 20.3516568,14.2297814 20.4082308,14.2863555 L23.0003228,16.8784474 L10.6271706,16.8784474 C10.4543228,16.8784474 10.3146067,17.0181634 10.3146067,17.1910112 C10.3146067,17.363859 10.4543228,17.5035751 10.6271706,17.5035751 L23.0003228,17.5035751 L20.4082308,20.095667 C20.3516568,20.1525536 20.3166496,20.230382 20.3166496,20.3166496 C20.3166496,20.4894974 20.4563657,20.6292135 20.6292135,20.6292135 C20.7154811,20.6292135 20.7936221,20.5945189 20.8501961,20.5376323 L23.9758345,17.4119939 C24.0327211,17.3554198 24.0674157,17.2772789 24.0674157,17.1910112 C24.0674157,17.1047436 24.0327211,17.0269152 23.9758345,16.9700286" id="Page-1" fill="#FFFFFF"></path>
            </g>
            <g id="icon-white-arrow" transform="translate(115.000000, 28.000000)" fill="#FFFFFF" fill-rule="nonzero" stroke="#FFFFFF">
                <g id="Page-1-Copy-3">
                    <g id="Design-01.12.15">
                        <g id="2a-Article-Rich:-Project-Case-study">
                            <path d="M19.68824,4.63658 L15.183644,0.13198 C15.10211,0.05045 14.989495,0 14.865169,0 C14.616064,0 14.414709,0.20136 14.414709,0.45046 C14.414709,0.57479 14.46516,0.6874 14.546694,0.76893 L18.282355,4.5046 L0.45046,4.5046 C0.201355,4.5046 0,4.70595 0,4.95506 C0,5.20416 0.201355,5.40552 0.45046,5.40552 L18.282355,5.40552 L14.546694,9.14118 C14.46516,9.22316 14.414709,9.33533 14.414709,9.45965 C14.414709,9.70876 14.616064,9.91011 14.865169,9.91011 C14.989495,9.91011 15.10211,9.86011 15.183644,9.77813 L19.68824,5.27353 C19.770224,5.192 19.820225,5.07938 19.820225,4.95506 C19.820225,4.83073 19.770224,4.71856 19.68824,4.63658" id="Page-1-Copy-3"></path>
                        </g>
                    </g>
                </g>
            </g>
            <g id="icon-blue-arrow" transform="translate(115.000000, 11.000000)" fill="#009FE4" fill-rule="nonzero" stroke="#144178">
                <g id="Page-1">
                    <g id="Design-01.12.15">
                        <g id="T&amp;T-Projects-Case-Study">
                            <path d="M19.68824,4.63658 L15.183644,0.13198 C15.10211,0.05045 14.989495,0 14.865169,0 C14.616064,0 14.414709,0.20136 14.414709,0.45046 C14.414709,0.57479 14.46516,0.6874 14.546694,0.76893 L18.282355,4.5046 L0.45046,4.5046 C0.201355,4.5046 0,4.70595 0,4.95506 C0,5.20416 0.201355,5.40552 0.45046,5.40552 L18.282355,5.40552 L14.546694,9.14118 C14.46516,9.22316 14.414709,9.33533 14.414709,9.45965 C14.414709,9.70876 14.616064,9.91011 14.865169,9.91011 C14.989495,9.91011 15.10211,9.86011 15.183644,9.77813 L19.68824,5.27353 C19.770224,5.192 19.820225,5.07938 19.820225,4.95506 C19.820225,4.83073 19.770224,4.71856 19.68824,4.63658" id="Page-1"></path>
                        </g>
                    </g>
                </g>
            </g>
            <g id="icon-carousel-right-copy" transform="translate(64.000000, 11.000000)" stroke="#FFFFFF">
                <circle id="Oval-1" stroke-width="2" cx="17" cy="17" r="17"></circle>
                <path d="M23.9758345,16.9700286 L20.8501961,13.8443902 C20.7936221,13.7878161 20.7154811,13.752809 20.6292135,13.752809 C20.4563657,13.752809 20.3166496,13.892525 20.3166496,14.0653728 C20.3166496,14.1516404 20.3516568,14.2297814 20.4082308,14.2863555 L23.0003228,16.8784474 L10.6271706,16.8784474 C10.4543228,16.8784474 10.3146067,17.0181634 10.3146067,17.1910112 C10.3146067,17.363859 10.4543228,17.5035751 10.6271706,17.5035751 L23.0003228,17.5035751 L20.4082308,20.095667 C20.3516568,20.1525536 20.3166496,20.230382 20.3166496,20.3166496 C20.3166496,20.4894974 20.4563657,20.6292135 20.6292135,20.6292135 C20.7154811,20.6292135 20.7936221,20.5945189 20.8501961,20.5376323 L23.9758345,17.4119939 C24.0327211,17.3554198 24.0674157,17.2772789 24.0674157,17.1910112 C24.0674157,17.1047436 24.0327211,17.0269152 23.9758345,16.9700286" id="Page-1" fill="#FFFFFF" fill-rule="nonzero"></path>
            </g>
            <g id="icon-carousel-left-copy" transform="translate(44.000000, 28.000000) rotate(-180.000000) translate(-44.000000, -28.000000) translate(27.000000, 11.000000)" stroke="#FFFFFF">
                <circle id="Oval-1" stroke-width="2" cx="17" cy="17" r="17"></circle>
                <path d="M23.9758345,16.9700286 L20.8501961,13.8443902 C20.7936221,13.7878161 20.7154811,13.752809 20.6292135,13.752809 C20.4563657,13.752809 20.3166496,13.892525 20.3166496,14.0653728 C20.3166496,14.1516404 20.3516568,14.2297814 20.4082308,14.2863555 L23.0003228,16.8784474 L10.6271706,16.8784474 C10.4543228,16.8784474 10.3146067,17.0181634 10.3146067,17.1910112 C10.3146067,17.363859 10.4543228,17.5035751 10.6271706,17.5035751 L23.0003228,17.5035751 L20.4082308,20.095667 C20.3516568,20.1525536 20.3166496,20.230382 20.3166496,20.3166496 C20.3166496,20.4894974 20.4563657,20.6292135 20.6292135,20.6292135 C20.7154811,20.6292135 20.7936221,20.5945189 20.8501961,20.5376323 L23.9758345,17.4119939 C24.0327211,17.3554198 24.0674157,17.2772789 24.0674157,17.1910112 C24.0674157,17.1047436 24.0327211,17.0269152 23.9758345,16.9700286" id="Page-1" fill="#FFFFFF" fill-rule="nonzero"></path>
            </g>
            <g id="icon-close-nav" transform="translate(0.000000, 26.000000)" fill="#FFFFFF" fill-rule="nonzero">
                <g id="CLOSE">
                    <g id="Design-01.12.15">
                        <g id="1.-Home-Mobile-Menu">
                            <g id="Rectangle-253-+-CLOSE">
                                <g id="CLOSE" transform="translate(0.666667, 0.666667)">
                                    <g id="Layer_1">
                                        <path d="M0.667070707,20.9030808 C0.79510101,21.0311111 0.963181818,21.094798 1.13126263,21.094798 C1.29934343,21.094798 1.46742424,21.0304545 1.59611111,20.9024242 L10.9797475,11.5076263 L20.3633838,20.9024242 C20.4914141,21.0311111 20.6594949,21.094798 20.8282323,21.094798 C20.9963131,21.094798 21.1643939,21.0304545 21.2924242,20.9030808 C21.5491414,20.6470202 21.5491414,20.2314141 21.2930808,19.974697 L11.9186364,10.5897475 L21.2924242,1.20545455 C21.5484848,0.948737374 21.5484848,0.533131313 21.2917677,0.277070707 C21.0343939,0.0203535354 20.6194444,0.0203535354 20.3633838,0.277727273 L10.9790909,9.67252525 L1.59545455,0.277727273 C1.33873737,0.021010101 0.923131313,0.021010101 0.667070707,0.277070707 C0.410353535,0.533131313 0.410353535,0.948737374 0.666414141,1.20545455 L10.0395455,10.5897475 L0.666414141,19.974697 C0.410353535,20.2307576 0.410353535,20.6470202 0.667070707,20.9030808 L0.667070707,20.9030808 L0.667070707,20.9030808 Z" id="Shape"></path>
                                    </g>
                                </g>
                            </g>
                        </g>
                    </g>
                </g>
            </g>
            <g id="icon-menu" transform="translate(0.000000, 10.000000)" fill="#FFFFFF" fill-rule="nonzero">
                <g id="HAMBURGER-MENU">
                    <g id="Design-01.12.15">
                        <g id="1.-Homepage-Mobile">
                            <g id="HAMBURGER-MENU">
                                <g id="Layer_1">
                                    <path d="M1.06081818,1.25 L20.1517273,1.25 C20.503,1.25 20.7880909,0.970625 20.7880909,0.625 C20.7880909,0.279375 20.503,0 20.1517273,0 L1.06081818,0 C0.709545455,0 0.424454545,0.279375 0.424454545,0.625 C0.424454545,0.970625 0.708909091,1.25 1.06081818,1.25 L1.06081818,1.25 L1.06081818,1.25 Z" id="Shape"></path>
                                    <path d="M1.06081818,15 L20.1517273,15 C20.503,15 20.7880909,14.720625 20.7880909,14.375 C20.7880909,14.029375 20.503,13.75 20.1517273,13.75 L1.06081818,13.75 C0.709545455,13.75 0.424454545,14.029375 0.424454545,14.375 C0.424454545,14.720625 0.708909091,15 1.06081818,15 L1.06081818,15 L1.06081818,15 Z" id="Shape"></path>
                                    <path d="M1.06081818,8.125 L20.1517273,8.125 C20.503,8.125 20.7880909,7.845625 20.7880909,7.5 C20.7880909,7.154375 20.503,6.875 20.1517273,6.875 L1.06081818,6.875 C0.709545455,6.875 0.424454545,7.154375 0.424454545,7.5 C0.424454545,7.845625 0.708909091,8.125 1.06081818,8.125 L1.06081818,8.125 L1.06081818,8.125 Z" id="Shape"></path>
                                </g>
                            </g>
                        </g>
                    </g>
                </g>
            </g>
            <g id="iconmonstr-instagram-11" transform="translate(531.000000, 10.000000)" fill="#009FE4" fill-rule="nonzero">
                <path d="M8.5,1.532125 C10.7695,1.532125 11.0386667,1.540625 11.9354167,1.58170833 C14.2389167,1.68654167 15.314875,2.7795 15.4197083,5.066 C15.4607917,5.96204167 15.4685833,6.23120833 15.4685833,8.50070833 C15.4685833,10.7709167 15.4600833,11.039375 15.4197083,11.9354167 C15.3141667,14.2197917 14.2410417,15.314875 11.9354167,15.4197083 C11.0386667,15.4607917 10.7709167,15.4692917 8.5,15.4692917 C6.2305,15.4692917 5.96133333,15.4607917 5.06529167,15.4197083 C2.756125,15.3141667 1.68583333,14.21625 1.581,11.9347083 C1.53991667,11.0386667 1.53141667,10.7702083 1.53141667,8.5 C1.53141667,6.2305 1.540625,5.96204167 1.581,5.06529167 C1.68654167,2.7795 2.75966667,1.68583333 5.06529167,1.581 C5.96204167,1.540625 6.2305,1.532125 8.5,1.532125 L8.5,1.532125 Z M8.5,3.44053489e-16 C6.19154167,3.44053489e-16 5.90254167,0.00991666667 4.995875,0.051 C1.90895833,0.192666667 0.193375,1.90541667 0.0517083333,4.99516667 C0.00991666667,5.90254167 0,6.19154167 0,8.5 C0,10.8084583 0.00991666667,11.0981667 0.051,12.0048333 C0.192666667,15.09175 1.90541667,16.8073333 4.99516667,16.949 C5.90254167,16.9900833 6.19154167,17 8.5,17 C10.8084583,17 11.0981667,16.9900833 12.0048333,16.949 C15.0889167,16.8073333 16.80875,15.0945833 16.9482917,12.0048333 C16.9900833,11.0981667 17,10.8084583 17,8.5 C17,6.19154167 16.9900833,5.90254167 16.949,4.995875 C16.8101667,1.91179167 15.0952917,0.193375 12.0055417,0.0517083333 C11.0981667,0.00991666667 10.8084583,0 8.5,3.44053489e-16 Z M8.5,4.13525 C6.08954167,4.13525 4.13525,6.08954167 4.13525,8.5 C4.13525,10.9104583 6.08954167,12.8654583 8.5,12.8654583 C10.9104583,12.8654583 12.86475,10.9111667 12.86475,8.5 C12.86475,6.08954167 10.9104583,4.13525 8.5,4.13525 Z M8.5,11.3333333 C6.93529167,11.3333333 5.66666667,10.0654167 5.66666667,8.5 C5.66666667,6.93529167 6.93529167,5.66666667 8.5,5.66666667 C10.0647083,5.66666667 11.3333333,6.93529167 11.3333333,8.5 C11.3333333,10.0654167 10.0647083,11.3333333 8.5,11.3333333 Z M13.0375833,2.943125 C12.47375,2.943125 12.016875,3.4 12.016875,3.963125 C12.016875,4.52625 12.47375,4.983125 13.0375833,4.983125 C13.6007083,4.983125 14.056875,4.52625 14.056875,3.963125 C14.056875,3.4 13.6007083,2.943125 13.0375833,2.943125 Z" id="Shape"></path>
            </g>
            <g id="iconmonstr-instagram-11-copy" transform="translate(531.000000, 29.000000)" fill="#F7F7F7" fill-rule="nonzero">
                <path d="M8.5,1.532125 C10.7695,1.532125 11.0386667,1.540625 11.9354167,1.58170833 C14.2389167,1.68654167 15.314875,2.7795 15.4197083,5.066 C15.4607917,5.96204167 15.4685833,6.23120833 15.4685833,8.50070833 C15.4685833,10.7709167 15.4600833,11.039375 15.4197083,11.9354167 C15.3141667,14.2197917 14.2410417,15.314875 11.9354167,15.4197083 C11.0386667,15.4607917 10.7709167,15.4692917 8.5,15.4692917 C6.2305,15.4692917 5.96133333,15.4607917 5.06529167,15.4197083 C2.756125,15.3141667 1.68583333,14.21625 1.581,11.9347083 C1.53991667,11.0386667 1.53141667,10.7702083 1.53141667,8.5 C1.53141667,6.2305 1.540625,5.96204167 1.581,5.06529167 C1.68654167,2.7795 2.75966667,1.68583333 5.06529167,1.581 C5.96204167,1.540625 6.2305,1.532125 8.5,1.532125 L8.5,1.532125 Z M8.5,3.44053489e-16 C6.19154167,3.44053489e-16 5.90254167,0.00991666667 4.995875,0.051 C1.90895833,0.192666667 0.193375,1.90541667 0.0517083333,4.99516667 C0.00991666667,5.90254167 0,6.19154167 0,8.5 C0,10.8084583 0.00991666667,11.0981667 0.051,12.0048333 C0.192666667,15.09175 1.90541667,16.8073333 4.99516667,16.949 C5.90254167,16.9900833 6.19154167,17 8.5,17 C10.8084583,17 11.0981667,16.9900833 12.0048333,16.949 C15.0889167,16.8073333 16.80875,15.0945833 16.9482917,12.0048333 C16.9900833,11.0981667 17,10.8084583 17,8.5 C17,6.19154167 16.9900833,5.90254167 16.949,4.995875 C16.8101667,1.91179167 15.0952917,0.193375 12.0055417,0.0517083333 C11.0981667,0.00991666667 10.8084583,0 8.5,3.44053489e-16 Z M8.5,4.13525 C6.08954167,4.13525 4.13525,6.08954167 4.13525,8.5 C4.13525,10.9104583 6.08954167,12.8654583 8.5,12.8654583 C10.9104583,12.8654583 12.86475,10.9111667 12.86475,8.5 C12.86475,6.08954167 10.9104583,4.13525 8.5,4.13525 Z M8.5,11.3333333 C6.93529167,11.3333333 5.66666667,10.0654167 5.66666667,8.5 C5.66666667,6.93529167 6.93529167,5.66666667 8.5,5.66666667 C10.0647083,5.66666667 11.3333333,6.93529167 11.3333333,8.5 C11.3333333,10.0654167 10.0647083,11.3333333 8.5,11.3333333 Z M13.0375833,2.943125 C12.47375,2.943125 12.016875,3.4 12.016875,3.963125 C12.016875,4.52625 12.47375,4.983125 13.0375833,4.983125 C13.6007083,4.983125 14.056875,4.52625 14.056875,3.963125 C14.056875,3.4 13.6007083,2.943125 13.0375833,2.943125 Z" id="Shape"></path>
            </g>
            <g id="iconmonstr-instagram-11-copy-2" transform="translate(531.000000, 48.000000)" fill="#54616B" fill-rule="nonzero">
                <path d="M8.5,1.532125 C10.7695,1.532125 11.0386667,1.540625 11.9354167,1.58170833 C14.2389167,1.68654167 15.314875,2.7795 15.4197083,5.066 C15.4607917,5.96204167 15.4685833,6.23120833 15.4685833,8.50070833 C15.4685833,10.7709167 15.4600833,11.039375 15.4197083,11.9354167 C15.3141667,14.2197917 14.2410417,15.314875 11.9354167,15.4197083 C11.0386667,15.4607917 10.7709167,15.4692917 8.5,15.4692917 C6.2305,15.4692917 5.96133333,15.4607917 5.06529167,15.4197083 C2.756125,15.3141667 1.68583333,14.21625 1.581,11.9347083 C1.53991667,11.0386667 1.53141667,10.7702083 1.53141667,8.5 C1.53141667,6.2305 1.540625,5.96204167 1.581,5.06529167 C1.68654167,2.7795 2.75966667,1.68583333 5.06529167,1.581 C5.96204167,1.540625 6.2305,1.532125 8.5,1.532125 L8.5,1.532125 Z M8.5,3.44053489e-16 C6.19154167,3.44053489e-16 5.90254167,0.00991666667 4.995875,0.051 C1.90895833,0.192666667 0.193375,1.90541667 0.0517083333,4.99516667 C0.00991666667,5.90254167 0,6.19154167 0,8.5 C0,10.8084583 0.00991666667,11.0981667 0.051,12.0048333 C0.192666667,15.09175 1.90541667,16.8073333 4.99516667,16.949 C5.90254167,16.9900833 6.19154167,17 8.5,17 C10.8084583,17 11.0981667,16.9900833 12.0048333,16.949 C15.0889167,16.8073333 16.80875,15.0945833 16.9482917,12.0048333 C16.9900833,11.0981667 17,10.8084583 17,8.5 C17,6.19154167 16.9900833,5.90254167 16.949,4.995875 C16.8101667,1.91179167 15.0952917,0.193375 12.0055417,0.0517083333 C11.0981667,0.00991666667 10.8084583,0 8.5,3.44053489e-16 Z M8.5,4.13525 C6.08954167,4.13525 4.13525,6.08954167 4.13525,8.5 C4.13525,10.9104583 6.08954167,12.8654583 8.5,12.8654583 C10.9104583,12.8654583 12.86475,10.9111667 12.86475,8.5 C12.86475,6.08954167 10.9104583,4.13525 8.5,4.13525 Z M8.5,11.3333333 C6.93529167,11.3333333 5.66666667,10.0654167 5.66666667,8.5 C5.66666667,6.93529167 6.93529167,5.66666667 8.5,5.66666667 C10.0647083,5.66666667 11.3333333,6.93529167 11.3333333,8.5 C11.3333333,10.0654167 10.0647083,11.3333333 8.5,11.3333333 Z M13.0375833,2.943125 C12.47375,2.943125 12.016875,3.4 12.016875,3.963125 C12.016875,4.52625 12.47375,4.983125 13.0375833,4.983125 C13.6007083,4.983125 14.056875,4.52625 14.056875,3.963125 C14.056875,3.4 13.6007083,2.943125 13.0375833,2.943125 Z" id="Shape"></path>
            </g>
            <g id="Group-7" transform="translate(72.000000, 50.000000)">
                <rect id="Rectangle" fill="#144178" fill-rule="nonzero" x="0" y="0" width="36" height="36" rx="18"></rect>
                <g id="Group-2" transform="translate(9.000000, 7.000000)" stroke="#FFFFFF">
                    <path d="M9.25709091,15.8934545 C9.19090909,15.9596364 9.10036364,16 9,16 C8.89963636,16 8.80872727,15.9596364 8.74290909,15.8934545 L5.10654545,12.2570909 C5.04036364,12.1912727 5,12.1003636 5,12 C5,11.7989091 5.16254545,11.6363636 5.36363636,11.6363636 C5.464,11.6363636 5.55454545,11.6770909 5.62072727,11.7429091 L8.63636364,14.7585455 L8.63636364,0.363636364 C8.63636364,0.162545455 8.79890909,0 9,0 C9.20109091,0 9.36363636,0.162545455 9.36363636,0.363636364 L9.36363636,14.7585455 L12.3792727,11.7429091 C12.4450909,11.6770909 12.536,11.6363636 12.6363636,11.6363636 C12.8374545,11.6363636 13,11.7989091 13,12 C13,12.1003636 12.9592727,12.1912727 12.8934545,12.2570909 L9.25709091,15.8934545 Z" id="Page-1-Copy-4" stroke-width="1.25" fill="#FFFFFF" fill-rule="nonzero"></path>
                    <polyline id="Path-2" stroke-width="1.75" stroke-linecap="round" points="0 15 0 19.4131576 17.8313849 19.4131576 17.8313849 15"></polyline>
                </g>
            </g>
            <g id="Group-7-Copy" transform="translate(72.000000, 86.000000)">
                <rect id="Rectangle" fill="#009FE4" fill-rule="nonzero" x="0" y="0" width="36" height="36" rx="18"></rect>
                <g id="Group-2" transform="translate(9.000000, 7.000000)" stroke="#FFFFFF">
                    <path d="M9.25709091,15.8934545 C9.19090909,15.9596364 9.10036364,16 9,16 C8.89963636,16 8.80872727,15.9596364 8.74290909,15.8934545 L5.10654545,12.2570909 C5.04036364,12.1912727 5,12.1003636 5,12 C5,11.7989091 5.16254545,11.6363636 5.36363636,11.6363636 C5.464,11.6363636 5.55454545,11.6770909 5.62072727,11.7429091 L8.63636364,14.7585455 L8.63636364,0.363636364 C8.63636364,0.162545455 8.79890909,0 9,0 C9.20109091,0 9.36363636,0.162545455 9.36363636,0.363636364 L9.36363636,14.7585455 L12.3792727,11.7429091 C12.4450909,11.6770909 12.536,11.6363636 12.6363636,11.6363636 C12.8374545,11.6363636 13,11.7989091 13,12 C13,12.1003636 12.9592727,12.1912727 12.8934545,12.2570909 L9.25709091,15.8934545 Z" id="Page-1-Copy-4" stroke-width="1.25" fill="#FFFFFF" fill-rule="nonzero"></path>
                    <polyline id="Path-2" stroke-width="1.75" stroke-linecap="round" points="0 15 0 19.4131576 17.8313849 19.4131576 17.8313849 15"></polyline>
                </g>
            </g>
            <g id="Group-3" transform="translate(36.000000, 50.000000)" fill-rule="nonzero">
                <circle id="Oval-Copy-5" fill="#144178" cx="18" cy="18" r="18"></circle>
                <path d="M19.3274773,19.4781176 L20.0433864,18.8263529 L25.3988636,23.7007059 L9.50043182,23.7007059 L15.1546818,18.8056471 L15.9789318,19.5195294 C16.4251818,19.9049412 17.0107955,20.1171765 17.6279091,20.1176471 C18.2698409,20.1171765 18.8731136,19.8903529 19.3274773,19.4781176 L19.3274773,19.4781176 Z M18.3748409,18.4616471 C18.0059091,18.7990588 17.2866591,18.8108235 16.9053182,18.4795294 L9.2365,11.8404706 L25.6513409,11.8390588 L18.3748409,18.4616471 Z M25.9902045,13.4141176 L25.9902045,22.3552941 L21.0781136,17.8847059 L25.9902045,13.4141176 Z M14.0908409,17.8847059 L8.86709091,22.4070588 L8.86709091,13.3618824 L14.0908409,17.8847059 Z M27.3117727,10.5378824 C26.9662273,10.1962353 26.4870455,10 25.9973636,10 L8.85897727,10 C8.37025,10 7.89106818,10.1962353 7.54647727,10.5374118 C7.19902273,10.8785882 7,11.3505882 7,11.8334118 L7,23.7072941 C7,24.1901176 7.19902273,24.6625882 7.54552273,25.0028235 C7.89106818,25.3449412 8.37025,25.5411765 8.85993182,25.5411765 L25.9983182,25.5411765 C26.4875227,25.5411765 26.9662273,25.3449412 27.3112955,25.0037647 C27.6582727,24.6625882 27.8572955,24.1901176 27.8572955,23.7072941 L27.8572955,11.8338824 C27.8572955,11.3505882 27.6582727,10.8785882 27.3117727,10.5378824 L27.3117727,10.5378824 Z" id="Fill-1" fill="#FFFFFF"></path>
            </g>
            <g id="Group-3-Copy" transform="translate(36.000000, 86.000000)" fill-rule="nonzero">
                <circle id="Oval-Copy-5" fill="#009FE4" cx="18" cy="18" r="18"></circle>
                <path d="M19.3274773,19.4781176 L20.0433864,18.8263529 L25.3988636,23.7007059 L9.50043182,23.7007059 L15.1546818,18.8056471 L15.9789318,19.5195294 C16.4251818,19.9049412 17.0107955,20.1171765 17.6279091,20.1176471 C18.2698409,20.1171765 18.8731136,19.8903529 19.3274773,19.4781176 L19.3274773,19.4781176 Z M18.3748409,18.4616471 C18.0059091,18.7990588 17.2866591,18.8108235 16.9053182,18.4795294 L9.2365,11.8404706 L25.6513409,11.8390588 L18.3748409,18.4616471 Z M25.9902045,13.4141176 L25.9902045,22.3552941 L21.0781136,17.8847059 L25.9902045,13.4141176 Z M14.0908409,17.8847059 L8.86709091,22.4070588 L8.86709091,13.3618824 L14.0908409,17.8847059 Z M27.3117727,10.5378824 C26.9662273,10.1962353 26.4870455,10 25.9973636,10 L8.85897727,10 C8.37025,10 7.89106818,10.1962353 7.54647727,10.5374118 C7.19902273,10.8785882 7,11.3505882 7,11.8334118 L7,23.7072941 C7,24.1901176 7.19902273,24.6625882 7.54552273,25.0028235 C7.89106818,25.3449412 8.37025,25.5411765 8.85993182,25.5411765 L25.9983182,25.5411765 C26.4875227,25.5411765 26.9662273,25.3449412 27.3112955,25.0037647 C27.6582727,24.6625882 27.8572955,24.1901176 27.8572955,23.7072941 L27.8572955,11.8338824 C27.8572955,11.3505882 27.6582727,10.8785882 27.3117727,10.5378824 L27.3117727,10.5378824 Z" id="Fill-1" fill="#FFFFFF"></path>
            </g>
            <g id="Group-4" transform="translate(0.000000, 50.000000)" fill-rule="nonzero">
                <circle id="Oval" fill="#144178" cx="18" cy="18" r="18"></circle>
                <polygon id="Fill-1" fill="#FFFFFF" points="10 25 14 25 14 14 10 14"></polygon>
                <path d="M16,24.9705893 L16,13.3267854 L19.3757302,13.3267854 L19.3757302,14.8791046 C19.3757302,14.8791046 20.332509,12.9529073 22.8082285,13.01052 C22.8082285,13.01052 26.8024944,12.5794321 27,17.2363897 L27,25 L23.483138,25 L23.483138,18.2141936 C23.483138,18.2141936 23.4267641,15.971731 21.457621,16.2303837 C21.457621,16.2303837 19.7699531,16.1441661 19.5724474,18.3290161 L19.5724474,24.9705893 L16,24.9705893 Z" id="Fill-2" fill="#FFFFFF"></path>
                <g id="Group" transform="translate(10.000000, 8.000000)" fill="#FFFFFF">
                    <path d="M4,1.99981062 C4,3.10538775 3.10479977,4 2.00018934,4 C0.895578908,4 0,3.10538775 0,1.99981062 C0,0.895369757 0.895578908,0 2.00018934,0 C3.10479977,0 4,0.895369757 4,1.99981062" id="Fill-4"></path>
                </g>
            </g>
            <g id="Group-4-Copy" transform="translate(0.000000, 86.000000)" fill-rule="nonzero">
                <circle id="Oval" fill="#009FE4" cx="18" cy="18" r="18"></circle>
                <polygon id="Fill-1" fill="#FFFFFF" points="10 25 14 25 14 14 10 14"></polygon>
                <path d="M16,24.9705893 L16,13.3267854 L19.3757302,13.3267854 L19.3757302,14.8791046 C19.3757302,14.8791046 20.332509,12.9529073 22.8082285,13.01052 C22.8082285,13.01052 26.8024944,12.5794321 27,17.2363897 L27,25 L23.483138,25 L23.483138,18.2141936 C23.483138,18.2141936 23.4267641,15.971731 21.457621,16.2303837 C21.457621,16.2303837 19.7699531,16.1441661 19.5724474,18.3290161 L19.5724474,24.9705893 L16,24.9705893 Z" id="Fill-2" fill="#FFFFFF"></path>
                <g id="Group" transform="translate(10.000000, 8.000000)" fill="#FFFFFF">
                    <path d="M4,1.99981062 C4,3.10538775 3.10479977,4 2.00018934,4 C0.895578908,4 0,3.10538775 0,1.99981062 C0,0.895369757 0.895578908,0 2.00018934,0 C3.10479977,0 4,0.895369757 4,1.99981062" id="Fill-4"></path>
                </g>
            </g>
            <g id="Group-5" transform="translate(109.000000, 51.000000)" stroke="#FFFFFF">
                <path d="M4.19281818,10.92675 C4.14318182,10.97225 4.07527273,11 4,11 C3.92472727,11 3.85654545,10.97225 3.80718182,10.92675 L1.07990909,8.42675 C1.03027273,8.3815 1,8.319 1,8.25 C1,8.11175 1.12190909,8 1.27272727,8 C1.348,8 1.41590909,8.028 1.46554545,8.07325 L3.72727273,10.1465 L3.72727273,0.25 C3.72727273,0.11175 3.84918182,0 4,0 C4.15081818,0 4.27272727,0.11175 4.27272727,0.25 L4.27272727,10.1465 L6.53445455,8.07325 C6.58381818,8.028 6.652,8 6.72727273,8 C6.87809091,8 7,8.11175 7,8.25 C7,8.319 6.96945455,8.3815 6.92009091,8.42675 L4.19281818,10.92675 Z" id="Page-1" fill="#FFFFFF" fill-rule="nonzero"></path>
                <path d="M0,14.5 L8,14.5" id="Line" stroke-width="1.25" stroke-linecap="round"></path>
            </g>
            <g id="Group-5-Copy" transform="translate(109.000000, 68.000000)" stroke="#009FE4">
                <path d="M4.19281818,10.92675 C4.14318182,10.97225 4.07527273,11 4,11 C3.92472727,11 3.85654545,10.97225 3.80718182,10.92675 L1.07990909,8.42675 C1.03027273,8.3815 1,8.319 1,8.25 C1,8.11175 1.12190909,8 1.27272727,8 C1.348,8 1.41590909,8.028 1.46554545,8.07325 L3.72727273,10.1465 L3.72727273,0.25 C3.72727273,0.11175 3.84918182,0 4,0 C4.15081818,0 4.27272727,0.11175 4.27272727,0.25 L4.27272727,10.1465 L6.53445455,8.07325 C6.58381818,8.028 6.652,8 6.72727273,8 C6.87809091,8 7,8.11175 7,8.25 C7,8.319 6.96945455,8.3815 6.92009091,8.42675 L4.19281818,10.92675 Z" id="Page-1" fill="#FFFFFF" fill-rule="nonzero"></path>
                <path d="M0,14.5 L8,14.5" id="Line" stroke-width="1.25" stroke-linecap="round"></path>
            </g>
            <g id="iconmonstr-rss-feed-3" transform="translate(119.000000, 49.000000)" fill="#144178" fill-rule="nonzero">
                <path d="M19,0 L5,0 C2.239,0 0,2.239 0,5 L0,19 C0,21.761 2.239,24 5,24 L19,24 C21.762,24 24,21.761 24,19 L24,5 C24,2.239 21.762,0 19,0 Z M6.168,20 C4.971,20 4,19.031 4,17.835 C4,16.639 4.971,15.67 6.168,15.67 C7.365,15.67 8.335,16.639 8.335,17.835 C8.335,19.031 7.365,20 6.168,20 Z M11.348,20 C11.307,15.971 8.034,12.702 4,12.661 L4,9.454 C9.814,9.495 14.518,14.193 14.561,20 L11.348,20 Z M16.789,20 C16.768,12.937 11.053,7.239 4,7.208 L4,4 C12.83,4.031 19.98,11.179 20,20 L16.789,20 L16.789,20 Z" id="Shape"></path>
            </g>
            <g id="iconmonstr-rss-feed-3" transform="translate(119.000000, 73.000000)" fill="#009FE4" fill-rule="nonzero">
                <path d="M19,0 L5,0 C2.239,0 0,2.239 0,5 L0,19 C0,21.761 2.239,24 5,24 L19,24 C21.762,24 24,21.761 24,19 L24,5 C24,2.239 21.762,0 19,0 Z M6.168,20 C4.971,20 4,19.031 4,17.835 C4,16.639 4.971,15.67 6.168,15.67 C7.365,15.67 8.335,16.639 8.335,17.835 C8.335,19.031 7.365,20 6.168,20 Z M11.348,20 C11.307,15.971 8.034,12.702 4,12.661 L4,9.454 C9.814,9.495 14.518,14.193 14.561,20 L11.348,20 Z M16.789,20 C16.768,12.937 11.053,7.239 4,7.208 L4,4 C12.83,4.031 19.98,11.179 20,20 L16.789,20 L16.789,20 Z" id="Shape"></path>
            </g>
            <g id="maps-and-flags" transform="translate(144.000000, 49.000000)" fill="#009FE4" fill-rule="nonzero">
                <path d="M5.5,0 C2.46728362,0 0,2.59944067 0,5.79456956 C0,9.75982439 4.9219612,15.5810502 5.13151806,15.8269255 C5.32835024,16.0578946 5.67200569,16.0574883 5.86848194,15.8269255 C6.0780388,15.5810502 11,9.75982439 11,5.79456956 C10.9999407,2.59944067 8.53268672,0 5.5,0 Z M5.50001587,8.42105263 C3.8669897,8.42105263 2.53846154,7.09886365 2.53846154,5.47366841 C2.53846154,3.84847318 3.86702144,2.52631579 5.50001587,2.52631579 C7.1330103,2.52631579 8.46153846,3.84850477 8.46153846,5.47370001 C8.46153846,7.09889524 7.1330103,8.42105263 5.50001587,8.42105263 Z" id="Shape" transform="translate(5.500000, 8.000000) scale(-1, 1) translate(-5.500000, -8.000000) "></path>
            </g>
        </g>
    </g>
</svg>