<svg width="78" height="17" viewBox="0 0 78 17" fill="none" xmlns="http://www.w3.org/2000/svg">
<path d="M7.19141 16.4975L2.41841 11.7245C1.47441 10.7805 0.831546 9.5778 0.571103 8.26843C0.310659 6.95906 0.444336 5.60186 0.95523 4.36847C1.46612 3.13507 2.33129 2.08087 3.44132 1.33917C4.55135 0.597478 5.85639 0.201599 7.19141 0.201599C8.52643 0.201599 9.83147 0.597478 10.9415 1.33917C12.0515 2.08087 12.9167 3.13507 13.4276 4.36847C13.9385 5.60186 14.0722 6.95906 13.8117 8.26843C13.5513 9.5778 12.9084 10.7805 11.9644 11.7245L7.19141 16.4975ZM10.9039 10.664C11.6381 9.92979 12.138 8.99433 12.3406 7.97595C12.5431 6.95756 12.4391 5.90199 12.0417 4.94271C11.6444 3.98343 10.9714 3.16352 10.1081 2.58667C9.24475 2.00981 8.22974 1.70192 7.19141 1.70192C6.15308 1.70192 5.13807 2.00981 4.27472 2.58667C3.41137 3.16352 2.73847 3.98343 2.34109 4.94271C1.94372 5.90199 1.83972 6.95756 2.04225 7.97595C2.24478 8.99433 2.74474 9.92979 3.47891 10.664L7.19141 14.3765L10.9039 10.664ZM7.19141 8.45154C6.79358 8.45154 6.41205 8.2935 6.13075 8.0122C5.84944 7.7309 5.69141 7.34936 5.69141 6.95154C5.69141 6.55372 5.84944 6.17218 6.13075 5.89088C6.41205 5.60958 6.79358 5.45154 7.19141 5.45154C7.58923 5.45154 7.97076 5.60958 8.25207 5.89088C8.53337 6.17218 8.69141 6.55372 8.69141 6.95154C8.69141 7.34936 8.53337 7.7309 8.25207 8.0122C7.97076 8.2935 7.58923 8.45154 7.19141 8.45154Z" fill="#092C56"/>
<path d="M27.25 2.5H30.25C30.4489 2.5 30.6397 2.57902 30.7803 2.71967C30.921 2.86032 31 3.05109 31 3.25V15.25C31 15.4489 30.921 15.6397 30.7803 15.7803C30.6397 15.921 30.4489 16 30.25 16H16.75C16.5511 16 16.3603 15.921 16.2197 15.7803C16.079 15.6397 16 15.4489 16 15.25V3.25C16 3.05109 16.079 2.86032 16.2197 2.71967C16.3603 2.57902 16.5511 2.5 16.75 2.5H19.75V1H21.25V2.5H25.75V1H27.25V2.5ZM29.5 8.5H17.5V14.5H29.5V8.5ZM25.75 4H21.25V5.5H19.75V4H17.5V7H29.5V4H27.25V5.5H25.75V4ZM19 10H20.5V11.5H19V10ZM22.75 10H24.25V11.5H22.75V10ZM26.5 10H28V11.5H26.5V10Z" fill="#092C56"/>
<path d="M38.25 1V2.5H42.75V1H44.25V2.5H47.25C47.4489 2.5 47.6397 2.57902 47.7803 2.71967C47.921 2.86032 48 3.05109 48 3.25V15.25C48 15.4489 47.921 15.6397 47.7803 15.7803C47.6397 15.921 47.4489 16 47.25 16H33.75C33.5511 16 33.3603 15.921 33.2197 15.7803C33.079 15.6397 33 15.4489 33 15.25V3.25C33 3.05109 33.079 2.86032 33.2197 2.71967C33.3603 2.57902 33.5511 2.5 33.75 2.5H36.75V1H38.25ZM46.5 7.75H34.5V14.5H46.5V7.75ZM42.777 8.602L43.8375 9.6625L40.125 13.375L37.473 10.723L38.535 9.6625L40.1258 11.254L42.7778 8.602H42.777ZM36.75 4H34.5V6.25H46.5V4H44.25V4.75H42.75V4H38.25V4.75H36.75V4Z" fill="#092C56"/>
<path d="M50 15.75C50 14.1587 50.6321 12.6326 51.7574 11.5074C52.8826 10.3821 54.4087 9.75 56 9.75C57.5913 9.75 59.1174 10.3821 60.2426 11.5074C61.3679 12.6326 62 14.1587 62 15.75H60.5C60.5 14.5565 60.0259 13.4119 59.182 12.568C58.3381 11.7241 57.1935 11.25 56 11.25C54.8065 11.25 53.6619 11.7241 52.818 12.568C51.9741 13.4119 51.5 14.5565 51.5 15.75H50ZM56 9C53.5138 9 51.5 6.98625 51.5 4.5C51.5 2.01375 53.5138 0 56 0C58.4862 0 60.5 2.01375 60.5 4.5C60.5 6.98625 58.4862 9 56 9ZM56 7.5C57.6575 7.5 59 6.1575 59 4.5C59 2.8425 57.6575 1.5 56 1.5C54.3425 1.5 53 2.8425 53 4.5C53 6.1575 54.3425 7.5 56 7.5Z" fill="#092C56"/>
<path d="M69.8238 7.88675L75.7106 2L76.7711 3.0605L75.7106 4.12175L77.5661 5.97725L76.5056 7.0385L74.6493 5.18225L73.5888 6.24275L75.1796 7.8335L74.1191 8.89475L72.5283 7.30325L70.8843 8.94725C71.3947 9.72275 71.5993 10.6599 71.4588 11.5776C71.3182 12.4952 70.8424 13.3282 70.1233 13.9154C69.4042 14.5025 68.493 14.8022 67.5657 14.7565C66.6385 14.7107 65.7612 14.3228 65.1033 13.6677C64.4441 13.011 64.0526 12.1326 64.0049 11.2033C63.9572 10.2739 64.2568 9.36009 64.8453 8.63931C65.4339 7.91854 66.2694 7.44233 67.1895 7.30325C68.1096 7.16416 69.0485 7.37214 69.8238 7.88675ZM69.3461 12.6065C69.5646 12.3998 69.7394 12.1515 69.8603 11.8761C69.9811 11.6007 70.0456 11.3039 70.0497 11.0032C70.0539 10.7025 69.9978 10.404 69.8846 10.1253C69.7715 9.84668 69.6036 9.59355 69.3909 9.38089C69.1783 9.16824 68.9252 9.00037 68.6465 8.88722C68.3679 8.77406 68.0694 8.71792 67.7687 8.7221C67.468 8.72628 67.1711 8.79071 66.8957 8.91156C66.6204 9.03242 66.372 9.20726 66.1653 9.42575C65.7555 9.8501 65.5287 10.4185 65.5338 11.0084C65.5389 11.5983 65.7756 12.1627 66.1927 12.5798C66.6099 12.997 67.1742 13.2336 67.7642 13.2388C68.3541 13.2439 68.9225 13.0171 69.3468 12.6073L69.3461 12.6065Z" fill="#092C56"/>
</svg>
